<svg id="Livello_1" data-name="Livello 1" xmlns="http://www.w3.org/2000/svg" xmlns:xlink="http://www.w3.org/1999/xlink" viewBox="0 0 900 300"><defs><style>.cls-1,.cls-6,.cls-8,.cls-9{fill:none;}.cls-2{fill:#e63a48;}.cls-3{fill:#010101;}.cls-13,.cls-4{fill:#fff;}.cls-5{clip-path:url(#clip-path);}.cls-6,.cls-8{stroke:#fff;}.cls-6{stroke-miterlimit:10;stroke-width:0.21px;}.cls-7{clip-path:url(#clip-path-2);}.cls-8,.cls-9{stroke-linecap:round;stroke-linejoin:round;stroke-width:2.68px;}.cls-9{stroke:#2d2d2e;}.cls-10{fill:#2d2d2e;}.cls-11{clip-path:url(#clip-path-4);}.cls-12,.cls-13{font-size:107.33px;font-family:JumperPERSONALUSEONLY-Extra-BoldItalic, Jumper PERSONAL USE ONLY;font-weight:700;font-style:italic;}.cls-12{fill:#e63949;}</style><clipPath id="clip-path"><rect class="cls-1" x="266.05" y="57.83" width="344.97" height="104.57"/></clipPath><clipPath id="clip-path-2"><rect class="cls-1" x="266.05" y="57.83" width="102.04" height="103.95"/></clipPath><clipPath id="clip-path-4"><rect class="cls-1" x="376.94" y="69.53" width="234.08" height="78.38"/></clipPath></defs><rect class="cls-2" x="0.5" y="0.5" width="899" height="299"/><path class="cls-3" d="M899,1V299H1V1H899m1-1H0V300H900V0Z"/><path class="cls-4" d="M175.73,219.85c0-.41.19-.62.58-.62h8.13a6.39,6.39,0,0,1,2.51.5,6.61,6.61,0,0,1,2,1.37,6.22,6.22,0,0,1,1.37,2,6.34,6.34,0,0,1,.25,4.23,6.49,6.49,0,0,1-.71,1.56,6.33,6.33,0,0,1-1.07,1.29,6.65,6.65,0,0,1-1.38,1l3.45,6.81a1.34,1.34,0,0,0,.09.26.68.68,0,0,1,.07.28c0,.27-.16.4-.47.4H187.5a.61.61,0,0,1-.63-.49l-3.22-6.37h-4.06v6.28c0,.38-.2.57-.61.57h-2.67a.63.63,0,0,1-.42-.14.53.53,0,0,1-.16-.43Zm11.19,5.78a3,3,0,0,0-.21-1.1,3.17,3.17,0,0,0-.6-1,2.86,2.86,0,0,0-.92-.69,3,3,0,0,0-1.15-.31l-.91,0h-3.54v6.16h4l.5,0a3.09,3.09,0,0,0,1.15-.29,2.86,2.86,0,0,0,.9-.67,3.16,3.16,0,0,0,.57-.95A3.12,3.12,0,0,0,186.92,225.63Z"/><path class="cls-4" d="M209.86,237.08a9.29,9.29,0,0,1-2.56,1.57,7.91,7.91,0,0,1-3,.57,8.67,8.67,0,0,1-3.4-.68,9,9,0,0,1-2.82-1.86,9.12,9.12,0,0,1-1.92-2.76,8.34,8.34,0,0,1-.71-3.42,8.72,8.72,0,0,1,.3-2.29,8.39,8.39,0,0,1,5.91-6.08,8.53,8.53,0,0,1,2.34-.31,8.27,8.27,0,0,1,2,.24,9.11,9.11,0,0,1,1.87.7,8.57,8.57,0,0,1,1.65,1.09,7.83,7.83,0,0,1,1.36,1.46,7.62,7.62,0,0,1,1.16,2.4,10.18,10.18,0,0,1,.38,2.85,5.64,5.64,0,0,1,0,.65.88.88,0,0,1-.16.42.82.82,0,0,1-.4.23,3,3,0,0,1-.75.07H199.25a4.43,4.43,0,0,0,.66,1.69,4.91,4.91,0,0,0,1.15,1.25,4.77,4.77,0,0,0,1.44.77,5.06,5.06,0,0,0,1.57.26,5.4,5.4,0,0,0,1.15-.12,6.2,6.2,0,0,0,1-.32,5.89,5.89,0,0,0,1.59-1s0,0,0,0a2.74,2.74,0,0,1,.31-.23.58.58,0,0,1,.3-.09.71.71,0,0,1,.28.08,1,1,0,0,1,.29.27l.61.73.42.49a2.29,2.29,0,0,1,.23.35.59.59,0,0,1,.07.29A1,1,0,0,1,209.86,237.08Zm-5.9-12a4.18,4.18,0,0,0-1.52.28,5,5,0,0,0-1.36.78,5.36,5.36,0,0,0-1.08,1.15,5,5,0,0,0-.67,1.44h9.4a5.05,5.05,0,0,0-.65-1.48,4.57,4.57,0,0,0-2.43-1.91A5.39,5.39,0,0,0,204,225.11Z"/><path class="cls-4" d="M234.6,238.16a.67.67,0,0,1-.36.63,1,1,0,0,1-.36.12,3,3,0,0,1-.43,0h-1.66a.68.68,0,0,1-.59-.23,1.49,1.49,0,0,1-.25-.57l-.08-1.12a8,8,0,0,1-1,.86,6.62,6.62,0,0,1-1.21.71,7.21,7.21,0,0,1-1.38.46,6.83,6.83,0,0,1-1.5.17,8.42,8.42,0,0,1-2.31-.31,8.66,8.66,0,0,1-2.07-.88,8,8,0,0,1-1.76-1.36,8.68,8.68,0,0,1-1.36-1.77,9.13,9.13,0,0,1-.87-2.08,8.87,8.87,0,0,1,0-4.65,9.33,9.33,0,0,1,.87-2.08,8.62,8.62,0,0,1,1.36-1.76,8.31,8.31,0,0,1,1.76-1.35,8.66,8.66,0,0,1,2.07-.88,8.42,8.42,0,0,1,2.31-.31,7.18,7.18,0,0,1,1.62.18,7.42,7.42,0,0,1,1.44.5,6.68,6.68,0,0,1,1.24.79,7.5,7.5,0,0,1,1,1l.19-1.42a2,2,0,0,1,.13-.39.74.74,0,0,1,.14-.25.54.54,0,0,1,.22-.13,1.55,1.55,0,0,1,.33,0h1.33a3,3,0,0,1,.42,0,1.49,1.49,0,0,1,.39.13.7.7,0,0,1,.27.24.63.63,0,0,1,.1.38Zm-13.8-7.66a5.4,5.4,0,0,0,.37,2,5,5,0,0,0,1,1.66,5.14,5.14,0,0,0,1.56,1.14,4.57,4.57,0,0,0,2,.42,4.83,4.83,0,0,0,2-.42,5.1,5.1,0,0,0,1.63-1.14,5.38,5.38,0,0,0,1.09-1.66,5.35,5.35,0,0,0,0-4,5.54,5.54,0,0,0-1.09-1.67,5.43,5.43,0,0,0-1.63-1.14,4.83,4.83,0,0,0-2-.42,4.57,4.57,0,0,0-2,.42,5.5,5.5,0,0,0-1.56,1.14,5.2,5.2,0,0,0-1,1.67A5.38,5.38,0,0,0,220.8,230.5Z"/><path class="cls-4" d="M240.26,217.87a.88.88,0,0,1,.18-.57.71.71,0,0,1,.57-.22h2.33a.69.69,0,0,1,.49.22.75.75,0,0,1,.24.57v20.27a.78.78,0,0,1-.22.6.88.88,0,0,1-.59.2H241a.77.77,0,0,1-.6-.2.86.86,0,0,1-.18-.6Z"/><path class="cls-4" d="M266.53,238.94a6.42,6.42,0,0,1-2-.32,4.77,4.77,0,0,1-1.6-.88,4.1,4.1,0,0,1-1.08-1.42,4.43,4.43,0,0,1-.4-1.92v-9h-1.53a.84.84,0,0,1-.58-.18.74.74,0,0,1-.19-.56v-1.91a.7.7,0,0,1,.19-.54.89.89,0,0,1,.58-.16h1.53v-1.4c0-.46,0-.93,0-1.4a.54.54,0,0,1,.17-.42,1.49,1.49,0,0,1,.51-.27l.54-.19.66-.22L264,218a2.34,2.34,0,0,1,.53-.07.58.58,0,0,1,.54.22,1.28,1.28,0,0,1,.12.6v1.67c0,.55,0,1.1,0,1.66h1.91a.72.72,0,0,1,.53.18.77.77,0,0,1,.19.56v1.81a.84.84,0,0,1-.19.61.69.69,0,0,1-.53.19H265.2V228c0,.3,0,.59,0,.85v3.45a.07.07,0,0,0,0,.05V234a1.85,1.85,0,0,0,.34,1.26,1.42,1.42,0,0,0,1.12.39.53.53,0,0,1,.44.2.77.77,0,0,1,.16.48v1.84a.73.73,0,0,1-.2.54A.7.7,0,0,1,266.53,238.94Z"/><path class="cls-4" d="M272.66,217a.7.7,0,0,1,.78-.8h2.23a.89.89,0,0,1,.6.2.78.78,0,0,1,.22.6v2a.94.94,0,0,1-.21.58.71.71,0,0,1-.59.27h-2.23c-.54,0-.8-.28-.8-.85Zm0,5.88a.84.84,0,0,1,.2-.58.72.72,0,0,1,.58-.23h2.21a.79.79,0,0,1,.29.06.88.88,0,0,1,.28.17,1.64,1.64,0,0,1,.2.26.71.71,0,0,1,.07.32v15.25c0,.53-.27.8-.83.8h-2.2a.71.71,0,0,1-.8-.8Z"/><path class="cls-4" d="M283.35,222.25a1.93,1.93,0,0,1,.84-.17h1.35a.7.7,0,0,1,.57.25,1.66,1.66,0,0,1,.25.56l.14,1.28a7.12,7.12,0,0,1,.71-.87,4.22,4.22,0,0,1,1-.74,5.18,5.18,0,0,1,1.28-.51,6.86,6.86,0,0,1,1.72-.19,7.36,7.36,0,0,1,1.69.18,5,5,0,0,1,1.37.53,4.79,4.79,0,0,1,1.1.87,6.67,6.67,0,0,1,.89,1.17,4.23,4.23,0,0,1,.86-1.14,5.28,5.28,0,0,1,1.26-.89,6.78,6.78,0,0,1,1.55-.56,7.39,7.39,0,0,1,1.77-.2,6.29,6.29,0,0,1,2.75.57,5.58,5.58,0,0,1,2,1.56,7,7,0,0,1,1.2,2.33,9.65,9.65,0,0,1,.41,2.84V238a1,1,0,0,1-.23.72.82.82,0,0,1-.65.25h-2a1,1,0,0,1-.71-.2,1.05,1.05,0,0,1-.18-.7v-8.91a4.5,4.5,0,0,0-.2-1.37,3.44,3.44,0,0,0-.61-1.17,3,3,0,0,0-1-.82,3.33,3.33,0,0,0-1.51-.32,3.49,3.49,0,0,0-1.35.26,3,3,0,0,0-1.08.74,3.63,3.63,0,0,0-.71,1.17,4.33,4.33,0,0,0-.26,1.52V238c0,.63-.29.95-.86.95h-2a1,1,0,0,1-.71-.2,1.12,1.12,0,0,1-.17-.7v-8.9a4.74,4.74,0,0,0-.19-1.35,3.61,3.61,0,0,0-.6-1.17,3.11,3.11,0,0,0-1-.84,3.36,3.36,0,0,0-1.51-.31,3.26,3.26,0,0,0-1.22.23,3.56,3.56,0,0,0-1.93,1.74,3.4,3.4,0,0,0-.33,1.45v9.27a.74.74,0,0,1-.23.56.77.77,0,0,1-.57.22h-2.19a.87.87,0,0,1-.64-.21.77.77,0,0,1-.21-.59V222.86A.62.62,0,0,1,283.35,222.25Z"/><path class="cls-4" d="M327.42,237.08a9.29,9.29,0,0,1-2.56,1.57,7.93,7.93,0,0,1-3.05.57,8.66,8.66,0,0,1-3.39-.68,8.88,8.88,0,0,1-2.82-1.86,9.12,9.12,0,0,1-1.92-2.76,8.34,8.34,0,0,1-.71-3.42,8.72,8.72,0,0,1,.3-2.29,8.5,8.5,0,0,1,3.85-5.2,8.42,8.42,0,0,1,2.06-.88,8.53,8.53,0,0,1,2.34-.31,8.34,8.34,0,0,1,2,.24,9.11,9.11,0,0,1,1.87.7,8.57,8.57,0,0,1,1.65,1.09,7.78,7.78,0,0,1,1.35,1.46,7.43,7.43,0,0,1,1.17,2.4,10.18,10.18,0,0,1,.38,2.85,5.64,5.64,0,0,1,0,.65.88.88,0,0,1-.16.42.86.86,0,0,1-.4.23,3,3,0,0,1-.75.07H316.81a4.27,4.27,0,0,0,.66,1.69,4.91,4.91,0,0,0,1.15,1.25,4.77,4.77,0,0,0,1.44.77,5.06,5.06,0,0,0,1.57.26,5.4,5.4,0,0,0,1.15-.12,6.51,6.51,0,0,0,1-.32,5.24,5.24,0,0,0,.88-.46,6,6,0,0,0,.71-.53s0,0,0,0a2.74,2.74,0,0,1,.31-.23.55.55,0,0,1,.3-.09.63.63,0,0,1,.27.08,1,1,0,0,1,.3.27l.61.73.42.49a2.29,2.29,0,0,1,.23.35.59.59,0,0,1,.07.29A1,1,0,0,1,327.42,237.08Zm-5.9-12a4.18,4.18,0,0,0-1.52.28,5.17,5.17,0,0,0-1.37.78,5.58,5.58,0,0,0-1.07,1.15,4.72,4.72,0,0,0-.67,1.44h9.4a5.05,5.05,0,0,0-.65-1.48,4.61,4.61,0,0,0-1-1.16,4.77,4.77,0,0,0-1.39-.75A5.44,5.44,0,0,0,321.52,225.11Z"/><path class="cls-4" d="M357.08,234.52a1.24,1.24,0,0,1,.38-.18l.26,0a.52.52,0,0,1,.39.24l.32.43.94,1.34a.93.93,0,0,1,.1.2.39.39,0,0,1,0,.18.62.62,0,0,1-.14.38,2.24,2.24,0,0,1-.39.33,10.62,10.62,0,0,1-2.43,1.33,7.85,7.85,0,0,1-2.88.51,8.39,8.39,0,0,1-2.29-.32,8.63,8.63,0,0,1-2.07-.87,8.9,8.9,0,0,1-1.76-1.36,8.76,8.76,0,0,1-2.26-3.84,8.63,8.63,0,0,1,.89-6.73,8.67,8.67,0,0,1,1.37-1.76,8.85,8.85,0,0,1,1.76-1.35,8.66,8.66,0,0,1,2.07-.88,8.38,8.38,0,0,1,2.29-.31,8.54,8.54,0,0,1,2.79.45,8.38,8.38,0,0,1,2.34,1.22h0c.13.12.25.23.37.32a.53.53,0,0,1,.18.44,1.21,1.21,0,0,1,0,.18.37.37,0,0,1-.07.2l-1.09,1.66a.72.72,0,0,1-.58.4.85.85,0,0,1-.51-.23,5.73,5.73,0,0,0-1.58-.93,5,5,0,0,0-1.86-.36,4.41,4.41,0,0,0-1.94.44,5.09,5.09,0,0,0-1.6,1.16,5.79,5.79,0,0,0-1.09,1.72,5.46,5.46,0,0,0-.4,2,5.43,5.43,0,0,0,1.48,3.75,5.19,5.19,0,0,0,1.6,1.14,4.62,4.62,0,0,0,1.95.42,4.49,4.49,0,0,0,1.95-.39A8.1,8.1,0,0,0,357.08,234.52Z"/><path class="cls-4" d="M363.87,230.54a8.7,8.7,0,0,1,1.19-4.42,8.4,8.4,0,0,1,1.37-1.76,8.9,8.9,0,0,1,1.76-1.36,9.33,9.33,0,0,1,2.08-.87,8.76,8.76,0,0,1,4.62,0A9.33,9.33,0,0,1,377,223a8.84,8.84,0,0,1,1.75,1.36,8.4,8.4,0,0,1,1.37,1.76,8.7,8.7,0,0,1,1.19,4.42,8.49,8.49,0,0,1-.31,2.32,8.73,8.73,0,0,1-.88,2.08,9,9,0,0,1-1.37,1.76,8.48,8.48,0,0,1-3.83,2.23,8.5,8.5,0,0,1-4.62,0,8.78,8.78,0,0,1-5.21-4,8.73,8.73,0,0,1-.88-2.08A8.49,8.49,0,0,1,363.87,230.54Zm3.74,0a5.4,5.4,0,0,0,.37,2,5.2,5.2,0,0,0,1,1.65,4.94,4.94,0,0,0,1.57,1.12,4.85,4.85,0,0,0,2,.41,4.69,4.69,0,0,0,1.94-.41,5,5,0,0,0,1.55-1.12,5.12,5.12,0,0,0,1-1.65,5.4,5.4,0,0,0,.37-2,5.6,5.6,0,0,0-1.38-3.69,5.05,5.05,0,0,0-1.55-1.15,4.41,4.41,0,0,0-1.94-.43,4.56,4.56,0,0,0-2,.43,5,5,0,0,0-1.57,1.15,5.58,5.58,0,0,0-1,1.68A5.47,5.47,0,0,0,367.61,230.54Z"/><path class="cls-4" d="M386.51,217.87a.89.89,0,0,1,.19-.57.68.68,0,0,1,.57-.22h2.32a.69.69,0,0,1,.5.22.74.74,0,0,1,.23.57v20.27a.75.75,0,0,1-.22.6.84.84,0,0,1-.59.2H387.3a.8.8,0,0,1-.61-.2.86.86,0,0,1-.18-.6Z"/><path class="cls-4" d="M396.23,217.87a.84.84,0,0,1,.19-.57.68.68,0,0,1,.57-.22h2.32a.71.71,0,0,1,.5.22.78.78,0,0,1,.23.57v20.27a.75.75,0,0,1-.22.6.84.84,0,0,1-.59.2H397a.79.79,0,0,1-.6-.2.86.86,0,0,1-.18-.6Z"/><path class="cls-4" d="M422.85,238.16a.75.75,0,0,1-.1.39.85.85,0,0,1-.26.24,1.07,1.07,0,0,1-.37.12,2.9,2.9,0,0,1-.43,0H420a.69.69,0,0,1-.59-.23,1.49,1.49,0,0,1-.24-.57l-.08-1.12a8.69,8.69,0,0,1-1,.86,6.71,6.71,0,0,1-1.22.71,6.78,6.78,0,0,1-1.38.46,6.69,6.69,0,0,1-1.5.17,8.4,8.4,0,0,1-2.3-.31,8.91,8.91,0,0,1-2.08-.88,8.54,8.54,0,0,1-1.76-1.36,8.64,8.64,0,0,1-1.35-1.77,8.73,8.73,0,0,1-.88-2.08,8.87,8.87,0,0,1,0-4.65,8.91,8.91,0,0,1,.88-2.08,8.58,8.58,0,0,1,1.35-1.76,8.83,8.83,0,0,1,3.84-2.23,8.4,8.4,0,0,1,2.3-.31,7.06,7.06,0,0,1,1.62.18,7.42,7.42,0,0,1,1.44.5,6.37,6.37,0,0,1,1.24.79,7.58,7.58,0,0,1,1,1l.18-1.42c.05-.16.09-.29.13-.39a.76.76,0,0,1,.15-.25.48.48,0,0,1,.22-.13,1.42,1.42,0,0,1,.33,0h1.32a3,3,0,0,1,.43,0,1.42,1.42,0,0,1,.38.13.73.73,0,0,1,.28.24.71.71,0,0,1,.1.38ZM409,230.5a5.4,5.4,0,0,0,.37,2,5.07,5.07,0,0,0,1,1.66,4.91,4.91,0,0,0,1.56,1.14,4.53,4.53,0,0,0,2,.42,4.89,4.89,0,0,0,2-.42,5.3,5.3,0,0,0,2.71-2.8,5.23,5.23,0,0,0,0-4,5.36,5.36,0,0,0-1.09-1.67,5.51,5.51,0,0,0-1.62-1.14,4.89,4.89,0,0,0-2-.42,4.53,4.53,0,0,0-2,.42,5.13,5.13,0,0,0-2.6,2.81A5.38,5.38,0,0,0,409,230.5Z"/><path class="cls-4" d="M432.14,238.14a2.17,2.17,0,0,1-.26.6.62.62,0,0,1-.54.2h-2c-.56,0-.84-.27-.84-.8V217.87a.75.75,0,0,1,.24-.57.76.76,0,0,1,.54-.22h2.19a.85.85,0,0,1,.63.23.76.76,0,0,1,.22.56V224a7.44,7.44,0,0,1,2.2-1.57,6.63,6.63,0,0,1,2.85-.58,8.11,8.11,0,0,1,3.34.68,8.58,8.58,0,0,1,4.49,4.63,9.22,9.22,0,0,1,0,6.8,8.49,8.49,0,0,1-4.49,4.63,8.12,8.12,0,0,1-3.34.69,6.16,6.16,0,0,1-1.5-.18,6.92,6.92,0,0,1-1.37-.47,6.62,6.62,0,0,1-1.21-.71,8,8,0,0,1-1-.87Zm10-7.6a5.47,5.47,0,0,0-.37-2,5.38,5.38,0,0,0-1-1.68,5.1,5.1,0,0,0-1.56-1.15,4.45,4.45,0,0,0-1.95-.43,4.67,4.67,0,0,0-2,.43,5.28,5.28,0,0,0-1.63,1.15,5.55,5.55,0,0,0-1.1,1.68,5.11,5.11,0,0,0-.4,2v.09a4.84,4.84,0,0,0,.43,2,5.22,5.22,0,0,0,1.1,1.62,5.12,5.12,0,0,0,1.61,1.1,4.92,4.92,0,0,0,2,.41,4.73,4.73,0,0,0,1.95-.41,5,5,0,0,0,2.6-2.77A5.4,5.4,0,0,0,442.12,230.54Z"/><path class="cls-4" d="M450.43,230.54a8.7,8.7,0,0,1,1.19-4.42,8.4,8.4,0,0,1,1.37-1.76,8.9,8.9,0,0,1,1.76-1.36,9.33,9.33,0,0,1,2.08-.87,8.76,8.76,0,0,1,4.62,0,8.58,8.58,0,0,1,3.84,2.23,8.36,8.36,0,0,1,1.36,1.76,8.66,8.66,0,0,1,.89,2.09,8.87,8.87,0,0,1,0,4.65,8.76,8.76,0,0,1-.89,2.08,8.75,8.75,0,0,1-3.12,3.12,8.54,8.54,0,0,1-2.08.87,8.5,8.5,0,0,1-4.62,0,8.78,8.78,0,0,1-5.21-4,8.73,8.73,0,0,1-.88-2.08A8.49,8.49,0,0,1,450.43,230.54Zm3.74,0a5.4,5.4,0,0,0,.38,2,5,5,0,0,0,2.6,2.77,4.85,4.85,0,0,0,2,.41,4.62,4.62,0,0,0,1.94-.41,4.85,4.85,0,0,0,1.55-1.12,5.33,5.33,0,0,0,1-1.65,5.6,5.6,0,0,0,.36-2,5.47,5.47,0,0,0-1.38-3.69,4.94,4.94,0,0,0-1.55-1.15,4.34,4.34,0,0,0-1.94-.43,4.56,4.56,0,0,0-2,.43,5.14,5.14,0,0,0-1.57,1.15,5.36,5.36,0,0,0-1,1.68A5.48,5.48,0,0,0,454.17,230.54Z"/><path class="cls-4" d="M473.05,222.86a.7.7,0,0,1,.26-.58.92.92,0,0,1,.57-.2h1.69a.63.63,0,0,1,.5.2,1.29,1.29,0,0,1,.27.49,3.2,3.2,0,0,1,.13.63c0,.23.06.43.1.62a6.82,6.82,0,0,1,.66-.8,4.27,4.27,0,0,1,.82-.7,4.26,4.26,0,0,1,2.38-.68,7.33,7.33,0,0,1,1.2.09,5.08,5.08,0,0,1,2,.73c.31.19.64.41,1,.67a2.12,2.12,0,0,1,.39.33.65.65,0,0,1,.16.44,1.7,1.7,0,0,1,0,.22.62.62,0,0,1-.1.24l-1.09,1.73a.58.58,0,0,1-.25.19.6.6,0,0,1-.24.06.86.86,0,0,1-.41-.1c-.3-.16-.56-.31-.8-.46a6.66,6.66,0,0,0-.7-.36,4.56,4.56,0,0,0-.71-.24,3.49,3.49,0,0,0-.82-.09,2.86,2.86,0,0,0-2,.76,3.82,3.82,0,0,0-1.09,2.09v10a.72.72,0,0,1-.83.8h-2.18a.72.72,0,0,1-.83-.8Z"/><path class="cls-4" d="M506.65,238.16a.67.67,0,0,1-.1.39.75.75,0,0,1-.26.24,1.07,1.07,0,0,1-.37.12,2.9,2.9,0,0,1-.43,0h-1.66a.69.69,0,0,1-.59-.23,1.49,1.49,0,0,1-.24-.57l-.08-1.12a8,8,0,0,1-1,.86,6.71,6.71,0,0,1-1.22.71,6.78,6.78,0,0,1-1.38.46,6.69,6.69,0,0,1-1.5.17,8.4,8.4,0,0,1-2.3-.31,8.91,8.91,0,0,1-2.08-.88,8.54,8.54,0,0,1-1.76-1.36,9,9,0,0,1-1.35-1.77,8.73,8.73,0,0,1-.88-2.08,8.71,8.71,0,0,1,6.07-10.72,8.4,8.4,0,0,1,2.3-.31,7.06,7.06,0,0,1,1.62.18,7,7,0,0,1,1.44.5,6.37,6.37,0,0,1,1.24.79,7.58,7.58,0,0,1,1,1l.19-1.42a3.11,3.11,0,0,1,.12-.39.76.76,0,0,1,.15-.25.54.54,0,0,1,.22-.13,1.55,1.55,0,0,1,.33,0h1.33a3,3,0,0,1,.42,0,1.63,1.63,0,0,1,.39.13.78.78,0,0,1,.27.24.63.63,0,0,1,.1.38Zm-13.81-7.66a5.6,5.6,0,0,0,.37,2,5.25,5.25,0,0,0,1,1.66,4.91,4.91,0,0,0,1.56,1.14,4.57,4.57,0,0,0,2,.42,4.89,4.89,0,0,0,2-.42,5.3,5.3,0,0,0,2.71-2.8,5.23,5.23,0,0,0,0-4,5.36,5.36,0,0,0-1.09-1.67,5.51,5.51,0,0,0-1.62-1.14,4.89,4.89,0,0,0-2-.42,4.57,4.57,0,0,0-2,.42,5.24,5.24,0,0,0-1.56,1.14,5.41,5.41,0,0,0-1,1.67A5.59,5.59,0,0,0,492.84,230.5Z"/><path class="cls-4" d="M518.36,238.94a6.42,6.42,0,0,1-2-.32,4.77,4.77,0,0,1-1.6-.88,4.1,4.1,0,0,1-1.08-1.42,4.43,4.43,0,0,1-.4-1.92v-9h-1.53a.82.82,0,0,1-.58-.18.74.74,0,0,1-.19-.56v-1.91a.7.7,0,0,1,.19-.54.87.87,0,0,1,.58-.16h1.53c0-.47,0-.93,0-1.4v-1.4a.54.54,0,0,1,.17-.42,1.49,1.49,0,0,1,.51-.27l.54-.19c.21-.08.43-.15.66-.22l.66-.18a2.34,2.34,0,0,1,.53-.07.58.58,0,0,1,.54.22,1.28,1.28,0,0,1,.12.6v1.67c0,.55,0,1.1,0,1.66h1.91a.72.72,0,0,1,.53.18.77.77,0,0,1,.19.56v1.81a.84.84,0,0,1-.19.61.69.69,0,0,1-.53.19H517V228c0,.3,0,.59,0,.85v3.45a.07.07,0,0,0,0,.05V234a1.85,1.85,0,0,0,.34,1.26,1.44,1.44,0,0,0,1.12.39.53.53,0,0,1,.44.2.77.77,0,0,1,.16.48v1.84a.73.73,0,0,1-.2.54A.69.69,0,0,1,518.36,238.94Z"/><path class="cls-4" d="M524.49,217a.7.7,0,0,1,.78-.8h2.23a.89.89,0,0,1,.6.2.78.78,0,0,1,.23.6v2a1,1,0,0,1-.22.58.71.71,0,0,1-.59.27h-2.23c-.54,0-.8-.28-.8-.85Zm0,5.88a.89.89,0,0,1,.2-.58.74.74,0,0,1,.58-.23h2.21a.79.79,0,0,1,.29.06.88.88,0,0,1,.28.17,1.64,1.64,0,0,1,.2.26.72.72,0,0,1,.08.32v15.25c0,.53-.28.8-.84.8h-2.2a.71.71,0,0,1-.8-.8Z"/><path class="cls-4" d="M533.37,223.16c0-.07,0-.14,0-.19l0-.17a1,1,0,0,1,0-.16.52.52,0,0,1,.18-.41.8.8,0,0,1,.53-.15h2.39a.77.77,0,0,1,.52.16,1.18,1.18,0,0,1,.32.45l.24.6.6,1.7.7,1.94.72,2c.23.65.46,1.27.67,1.85s.41,1.1.57,1.54.3.79.4,1l.53-1.49c.2-.56.41-1.16.64-1.79l.7-2,.71-2c.23-.65.45-1.26.65-1.85l.57-1.6a1.13,1.13,0,0,1,.32-.46.92.92,0,0,1,.53-.14h2.48a.94.94,0,0,1,.56.13.43.43,0,0,1,.16.35,1,1,0,0,1,0,.27,1.46,1.46,0,0,1-.06.23l-6.31,15.35a2.7,2.7,0,0,1-.26.36.78.78,0,0,1-.57.17h-1.22a.86.86,0,0,1-.64-.17,1.23,1.23,0,0,1-.25-.36Z"/><path class="cls-4" d="M567.15,237.08a9.39,9.39,0,0,1-2.55,1.57,8,8,0,0,1-3.05.57,8.71,8.71,0,0,1-3.4-.68,9,9,0,0,1-4.73-4.62,8.34,8.34,0,0,1-.71-3.42,8.83,8.83,0,0,1,1.12-4.35,9,9,0,0,1,1.31-1.77,8.54,8.54,0,0,1,8.11-2.32,9,9,0,0,1,3.52,1.79,8.13,8.13,0,0,1,1.35,1.46,7.87,7.87,0,0,1,1.17,2.4,10.19,10.19,0,0,1,.37,2.85,5.92,5.92,0,0,1,0,.65.8.8,0,0,1-.17.42.82.82,0,0,1-.4.23,2.83,2.83,0,0,1-.74.07H556.55a4.42,4.42,0,0,0,.65,1.69,5.3,5.3,0,0,0,1.15,1.25,4.82,4.82,0,0,0,1.45.77,5,5,0,0,0,1.56.26,5.34,5.34,0,0,0,1.15-.12,6.2,6.2,0,0,0,1-.32,4.88,4.88,0,0,0,.88-.46,5.25,5.25,0,0,0,.71-.53l0,0a2.68,2.68,0,0,1,.3-.23.59.59,0,0,1,.31-.09.63.63,0,0,1,.27.08,1.22,1.22,0,0,1,.3.27c.24.29.44.54.61.73s.31.36.41.49a1.38,1.38,0,0,1,.23.35.6.6,0,0,1,.08.29C567.66,236.59,567.49,236.83,567.15,237.08Zm-5.89-12a4.27,4.27,0,0,0-1.53.28,5.11,5.11,0,0,0-1.36.78,5.32,5.32,0,0,0-1.07,1.15,4.72,4.72,0,0,0-.67,1.44H566a4.93,4.93,0,0,0-1.68-2.64,4.7,4.7,0,0,0-1.4-.75A5.38,5.38,0,0,0,561.26,225.11Z"/><path class="cls-4" d="M591.55,238.94a6.3,6.3,0,0,1-2-.32,4.82,4.82,0,0,1-1.61-.88,4.36,4.36,0,0,1-1.08-1.42,4.58,4.58,0,0,1-.4-1.92v-9H585a.82.82,0,0,1-.58-.18.7.7,0,0,1-.19-.56v-1.91a.67.67,0,0,1,.19-.54.87.87,0,0,1,.58-.16h1.52c0-.47,0-.93,0-1.4s0-.93,0-1.4a.54.54,0,0,1,.16-.42,1.49,1.49,0,0,1,.51-.27l.55-.19.65-.22L589,218a2.34,2.34,0,0,1,.53-.07c.28,0,.46.07.54.22a1.27,1.27,0,0,1,.13.6c0,.56,0,1.11,0,1.67s0,1.1,0,1.66h1.92a.74.74,0,0,1,.53.18.77.77,0,0,1,.18.56v1.81a.84.84,0,0,1-.18.61.7.7,0,0,1-.53.19h-1.92V228c0,.3,0,.59,0,.85s0,.56,0,.87v2.52s0,0,0,.06a.43.43,0,0,0,0,.05V234a1.84,1.84,0,0,0,.35,1.26,1.41,1.41,0,0,0,1.11.39.5.5,0,0,1,.44.2.71.71,0,0,1,.16.48v1.84a.66.66,0,0,1-.73.73Z"/><path class="cls-4" d="M611.46,237.08a9.39,9.39,0,0,1-2.55,1.57,8,8,0,0,1-3,.57,8.71,8.71,0,0,1-3.4-.68,9,9,0,0,1-4.73-4.62,8.34,8.34,0,0,1-.71-3.42,8.83,8.83,0,0,1,1.12-4.35,9,9,0,0,1,1.31-1.77,8.28,8.28,0,0,1,3.78-2.25,8.53,8.53,0,0,1,2.34-.31,8.34,8.34,0,0,1,2,.24,9.11,9.11,0,0,1,1.87.7,8.89,8.89,0,0,1,1.65,1.09,8.13,8.13,0,0,1,1.35,1.46,7.87,7.87,0,0,1,1.17,2.4,10.19,10.19,0,0,1,.37,2.85,5.92,5.92,0,0,1,0,.65.8.8,0,0,1-.17.42.83.83,0,0,1-.39.23,3,3,0,0,1-.75.07H600.86a4.42,4.42,0,0,0,.65,1.69,5.3,5.3,0,0,0,1.15,1.25,4.82,4.82,0,0,0,1.45.77,5,5,0,0,0,1.57.26,5.31,5.31,0,0,0,1.14-.12,6.2,6.2,0,0,0,1-.32,4.57,4.57,0,0,0,.88-.46,6.11,6.11,0,0,0,.72-.53s0,0,0,0a2.68,2.68,0,0,1,.3-.23.59.59,0,0,1,.31-.09.63.63,0,0,1,.27.08,1.22,1.22,0,0,1,.3.27c.24.29.44.54.61.73s.31.36.41.49a1.38,1.38,0,0,1,.23.35.6.6,0,0,1,.08.29C612,236.59,611.8,236.83,611.46,237.08Zm-5.89-12a4.27,4.27,0,0,0-1.53.28,5.11,5.11,0,0,0-1.36.78,5.32,5.32,0,0,0-1.07,1.15,4.72,4.72,0,0,0-.67,1.44h9.4a5.33,5.33,0,0,0-.65-1.48,4.57,4.57,0,0,0-2.43-1.91A5.49,5.49,0,0,0,605.57,225.11Z"/><path class="cls-4" d="M618.11,238.75c-.13,0-.2-.05-.2-.15a.53.53,0,0,1,.07-.2v0a.29.29,0,0,1,0-.16.87.87,0,0,1,.08-.14l5.5-7.84-1.38-2c-.43-.61-.84-1.21-1.25-1.78l-1.19-1.71L618.55,223a1.22,1.22,0,0,1-.17-.29.56.56,0,0,1-.07-.25.31.31,0,0,1,.14-.26.91.91,0,0,1,.47-.1h2.42a2.59,2.59,0,0,1,.62.06,1.18,1.18,0,0,1,.39.19,1.52,1.52,0,0,1,.31.35l.34.5c.48.72.94,1.44,1.39,2.17l1.37,2.17c.24-.34.49-.72.75-1.13l.79-1.26c.27-.43.53-.85.78-1.27s.5-.8.73-1.15a2,2,0,0,1,.41-.49.83.83,0,0,1,.48-.14h3a.82.82,0,0,1,.4.09.29.29,0,0,1,.16.27.74.74,0,0,1-.17.42l-1.26,1.78-1.22,1.74-1.27,1.81-1.39,2c.91,1.29,1.82,2.58,2.71,3.87l2.72,3.87c.07.11.13.22.19.33a.73.73,0,0,1,.07.31.32.32,0,0,1-.13.26.75.75,0,0,1-.46.11h-3.12a.73.73,0,0,1-.48-.15,1.64,1.64,0,0,1-.37-.43l-.35-.55-1.47-2.4-1.46-2.4-2.93,4.83a6.11,6.11,0,0,1-.55.77,1,1,0,0,1-.37.23,1.63,1.63,0,0,1-.45.09,3.85,3.85,0,0,1-.48,0h-2.6A.27.27,0,0,1,618.11,238.75Z"/><path class="cls-4" d="M644.28,238.94a6.3,6.3,0,0,1-2-.32,4.82,4.82,0,0,1-1.61-.88,4.1,4.1,0,0,1-1.08-1.42,4.43,4.43,0,0,1-.4-1.92v-9h-1.53a.8.8,0,0,1-.57-.18.7.7,0,0,1-.2-.56v-1.91a.67.67,0,0,1,.2-.54.84.84,0,0,1,.57-.16h1.53c0-.47,0-.93,0-1.4v-1.4a.54.54,0,0,1,.17-.42,1.49,1.49,0,0,1,.51-.27l.54-.19.66-.22.66-.18a2.34,2.34,0,0,1,.53-.07.58.58,0,0,1,.54.22,1.28,1.28,0,0,1,.12.6v1.67c0,.55,0,1.1,0,1.66h1.91a.65.65,0,0,1,.72.74v1.81a.8.8,0,0,1-.19.61.69.69,0,0,1-.53.19H643V228c0,.3,0,.59,0,.85v3.45a.07.07,0,0,0,0,.05V234a1.85,1.85,0,0,0,.34,1.26,1.44,1.44,0,0,0,1.12.39.51.51,0,0,1,.44.2.77.77,0,0,1,.16.48v1.84a.73.73,0,0,1-.2.54A.69.69,0,0,1,644.28,238.94Z"/><path class="cls-4" d="M674.69,237.08a9.29,9.29,0,0,1-2.56,1.57,7.91,7.91,0,0,1-3,.57,8.67,8.67,0,0,1-3.4-.68,9,9,0,0,1-4.73-4.62,8.19,8.19,0,0,1-.71-3.42,8.76,8.76,0,0,1,2.43-6.12A8.16,8.16,0,0,1,664.4,223a8.35,8.35,0,0,1,2.05-.88,8.55,8.55,0,0,1,2.35-.31,8.4,8.4,0,0,1,2,.24,9.25,9.25,0,0,1,1.86.7,8.57,8.57,0,0,1,1.65,1.09,7.9,7.9,0,0,1,2.53,3.86,10.57,10.57,0,0,1,.37,2.85,5.92,5.92,0,0,1,0,.65.89.89,0,0,1-.17.42.82.82,0,0,1-.4.23,2.88,2.88,0,0,1-.74.07H664.08a4.6,4.6,0,0,0,.66,1.69,5.1,5.1,0,0,0,1.15,1.25,4.71,4.71,0,0,0,1.45.77,5,5,0,0,0,1.56.26,5.4,5.4,0,0,0,1.15-.12,6.2,6.2,0,0,0,1-.32A4.88,4.88,0,0,0,672,235a5.25,5.25,0,0,0,.71-.53v0a2.74,2.74,0,0,1,.31-.23.59.59,0,0,1,.31-.09.67.67,0,0,1,.27.08,1.22,1.22,0,0,1,.3.27c.23.29.44.54.61.73s.3.36.41.49a2.29,2.29,0,0,1,.23.35.59.59,0,0,1,.07.29A1,1,0,0,1,674.69,237.08Zm-5.89-12a4.19,4.19,0,0,0-1.53.28,5,5,0,0,0-1.36.78,5.63,5.63,0,0,0-1.08,1.15,5,5,0,0,0-.67,1.44h9.4a5.31,5.31,0,0,0-.64-1.48,5,5,0,0,0-1-1.16,4.83,4.83,0,0,0-1.4-.75A5.38,5.38,0,0,0,668.8,225.11Z"/><path class="cls-4" d="M695.56,237a8.76,8.76,0,0,1-1,.87,7.13,7.13,0,0,1-2.58,1.18,6.16,6.16,0,0,1-1.5.18,8.09,8.09,0,0,1-3.34-.69,8.62,8.62,0,0,1-2.7-1.86,8.83,8.83,0,0,1-1.8-2.77,9.22,9.22,0,0,1,0-6.8,8.79,8.79,0,0,1,1.8-2.76,8.65,8.65,0,0,1,2.7-1.87,8.08,8.08,0,0,1,3.34-.68,6.71,6.71,0,0,1,2.85.57,7.38,7.38,0,0,1,2.19,1.58v-6.1a.74.74,0,0,1,.82-.79h2.18a.87.87,0,0,1,.57.22.68.68,0,0,1,.27.57v20.27c0,.53-.29.8-.85.8h-2a.65.65,0,0,1-.55-.2,1.9,1.9,0,0,1-.26-.6Zm-9.87-6.48a5.4,5.4,0,0,0,.38,2,5,5,0,0,0,2.59,2.77,4.71,4.71,0,0,0,2,.41,4.91,4.91,0,0,0,2-.41,5.05,5.05,0,0,0,1.62-1.1,5.29,5.29,0,0,0,1.52-3.59v-.09a5.11,5.11,0,0,0-.4-2,5.5,5.5,0,0,0-1.08-1.68,5.41,5.41,0,0,0-1.63-1.15,4.68,4.68,0,0,0-2-.43,4.43,4.43,0,0,0-2,.43,5.1,5.1,0,0,0-1.56,1.15,5.36,5.36,0,0,0-1,1.68A5.48,5.48,0,0,0,685.69,230.54Z"/><path class="cls-4" d="M705.09,217a.7.7,0,0,1,.78-.8h2.23a.89.89,0,0,1,.6.2.78.78,0,0,1,.22.6v2a.94.94,0,0,1-.21.58.72.72,0,0,1-.6.27h-2.23c-.53,0-.79-.28-.79-.85Zm0,5.88a.84.84,0,0,1,.2-.58.72.72,0,0,1,.58-.23h2.2a.8.8,0,0,1,.3.06,1,1,0,0,1,.28.17,1.57,1.57,0,0,1,.19.26.61.61,0,0,1,.08.32v15.25c0,.53-.27.8-.83.8h-2.21a.7.7,0,0,1-.79-.8Z"/><path class="cls-4" d="M721.48,238.94a6.35,6.35,0,0,1-2-.32,4.92,4.92,0,0,1-1.61-.88,4.36,4.36,0,0,1-1.08-1.42,4.58,4.58,0,0,1-.4-1.92v-9H714.9a.82.82,0,0,1-.58-.18.7.7,0,0,1-.19-.56v-1.91a.67.67,0,0,1,.19-.54.87.87,0,0,1,.58-.16h1.52c0-.47,0-.93,0-1.4s0-.93,0-1.4a.54.54,0,0,1,.16-.42,1.49,1.49,0,0,1,.51-.27l.55-.19c.21-.08.43-.15.66-.22L719,218a2.34,2.34,0,0,1,.53-.07c.28,0,.46.07.54.22a1.16,1.16,0,0,1,.13.6c0,.56,0,1.11,0,1.67s0,1.1,0,1.66h1.92a.74.74,0,0,1,.53.18.77.77,0,0,1,.18.56v1.81a.84.84,0,0,1-.18.61.7.7,0,0,1-.53.19h-1.92V228c0,.3,0,.59,0,.85s0,.56,0,.87v2.52s0,0,0,.06a.43.43,0,0,0,0,.05V234a1.84,1.84,0,0,0,.35,1.26,1.41,1.41,0,0,0,1.11.39.5.5,0,0,1,.44.2.71.71,0,0,1,.16.48v1.84a.66.66,0,0,1-.73.73Z"/><path class="cls-4" d="M727,230.54a8.7,8.7,0,0,1,1.19-4.42,8.4,8.4,0,0,1,1.37-1.76,8.9,8.9,0,0,1,1.76-1.36,9.33,9.33,0,0,1,2.08-.87,8.76,8.76,0,0,1,4.62,0,8.58,8.58,0,0,1,3.84,2.23,8.36,8.36,0,0,1,1.36,1.76,8.26,8.26,0,0,1,.88,2.09,8.61,8.61,0,0,1,0,4.65,8.34,8.34,0,0,1-.88,2.08,8.75,8.75,0,0,1-3.12,3.12,8.54,8.54,0,0,1-2.08.87,8.5,8.5,0,0,1-4.62,0,8.78,8.78,0,0,1-5.21-4,8.73,8.73,0,0,1-.88-2.08A8.49,8.49,0,0,1,727,230.54Zm3.74,0a5.4,5.4,0,0,0,.38,2,5,5,0,0,0,2.6,2.77,4.85,4.85,0,0,0,2,.41,4.62,4.62,0,0,0,1.94-.41,4.85,4.85,0,0,0,1.55-1.12,5.12,5.12,0,0,0,1-1.65,5.4,5.4,0,0,0,.37-2,5.6,5.6,0,0,0-1.38-3.69,4.94,4.94,0,0,0-1.55-1.15,4.34,4.34,0,0,0-1.94-.43,4.56,4.56,0,0,0-2,.43,5.14,5.14,0,0,0-1.57,1.15,5.36,5.36,0,0,0-1,1.68A5.48,5.48,0,0,0,730.73,230.54Z"/><path class="cls-4" d="M749.61,222.86a.7.7,0,0,1,.26-.58.92.92,0,0,1,.57-.2h1.69a.63.63,0,0,1,.5.2,1.29,1.29,0,0,1,.27.49,3.2,3.2,0,0,1,.13.63c0,.23.06.43.1.62a7.86,7.86,0,0,1,.65-.8,4.66,4.66,0,0,1,.83-.7,4.26,4.26,0,0,1,2.38-.68,7.33,7.33,0,0,1,1.2.09,5.08,5.08,0,0,1,2,.73c.31.19.64.41,1,.67a2.12,2.12,0,0,1,.39.33.65.65,0,0,1,.16.44,1.7,1.7,0,0,1,0,.22.62.62,0,0,1-.1.24l-1.09,1.73a.58.58,0,0,1-.25.19.6.6,0,0,1-.24.06.86.86,0,0,1-.41-.1c-.3-.16-.56-.31-.8-.46a6.66,6.66,0,0,0-.7-.36,4.56,4.56,0,0,0-.71-.24,3.49,3.49,0,0,0-.82-.09,2.86,2.86,0,0,0-2,.76,3.82,3.82,0,0,0-1.09,2.09v10a.72.72,0,0,1-.83.8h-2.18a.72.72,0,0,1-.83-.8Z"/><g class="cls-5"><polygon class="cls-6" points="337.23 60.95 337.23 123.94 304.05 157.42 267.93 157.42 267.93 60.95 337.23 60.95"/><g class="cls-7"><polygon class="cls-8" points="337.23 60.95 337.23 123.94 304.05 157.42 267.93 157.42 267.93 60.95 337.23 60.95"/></g><line class="cls-6" x1="279.91" y1="75.22" x2="299.41" y2="75.22"/><line class="cls-8" x1="279.91" y1="75.22" x2="299.41" y2="75.22"/><line class="cls-6" x1="279.91" y1="89.49" x2="321.89" y2="89.49"/><line class="cls-8" x1="279.91" y1="89.49" x2="321.89" y2="89.49"/><line class="cls-6" x1="279.91" y1="102.69" x2="320.64" y2="102.69"/><line class="cls-8" x1="279.91" y1="102.69" x2="320.64" y2="102.69"/><line class="cls-6" x1="279.91" y1="117.36" x2="296.55" y2="117.36"/><line class="cls-8" x1="279.91" y1="117.36" x2="296.55" y2="117.36"/><g class="cls-7"><path class="cls-4" d="M356.69,62.3l-39,39a6,6,0,0,0,8.55,8.56l39-39Z"/><path class="cls-6" d="M356.69,62.3l-39,39a6,6,0,0,0,8.55,8.56l39-39Z"/><path class="cls-9" d="M356.69,62.3l-39,39a6,6,0,0,0,8.55,8.56l39-39Z"/><polygon class="cls-4" points="317.15 101.84 325.7 110.39 310.18 117.36 317.15 101.84"/><path class="cls-9" d="M317.15,101.84l8.55,8.55-15.52,7Zm25.06-25.06,8.55,8.56"/><polygon class="cls-10" points="305.14 125.15 305.14 126.79 308.22 125.15 305.14 125.15"/><polygon class="cls-6" points="305.14 125.15 305.14 126.79 308.22 125.15 305.14 125.15"/><polygon class="cls-10" points="304.11 137.09 304.11 146.14 321.19 140.17 334.16 127 304.11 137.09"/><polygon class="cls-6" points="304.11 137.09 304.11 146.14 321.19 140.17 334.16 127 304.11 137.09"/><path class="cls-10" d="M304.11,146.14v11.33c0-1.65,17.7-16.88,17.7-16.88Z"/><path class="cls-6" d="M304.11,146.14v11.33c0-1.65,17.7-16.88,17.7-16.88Z"/><polygon class="cls-10" points="304 128.13 304 137.19 335.29 126.07 335.29 124.01 314.71 124.01 304 128.13"/><polygon class="cls-6" points="304 128.13 304 137.19 335.29 126.07 335.29 124.01 314.71 124.01 304 128.13"/><path class="cls-8" d="M316,123.94l-12,4.11m30.21-1.11h0l-30.21,10.15m17.15,3-17.15,6m2.37,8.9h0l-2.37.81"/><polygon class="cls-8" points="337.23 123.94 304.05 157.42 304.05 123.94 337.23 123.94"/></g><g class="cls-11"><text class="cls-12" transform="translate(376.94 61.94)">DoX</text><text class="cls-13" transform="translate(376.94 145.55)">DoX</text></g></g></svg>