<svg id="Livello_1" data-name="Livello 1" xmlns="http://www.w3.org/2000/svg" xmlns:xlink="http://www.w3.org/1999/xlink" viewBox="0 0 1292.55 391.82"><defs><style>.cls-1,.cls-7,.cls-8{fill:none;}.cls-2{clip-path:url(#clip-path);}.cls-3,.cls-4{font-size:402.15px;font-family:JumperPERSONALUSEONLY-Extra-BoldItalic, Jumper PERSONAL USE ONLY;font-weight:700;font-style:italic;}.cls-3{fill:#e63948;}.cls-4,.cls-9{fill:#fff;}.cls-5{clip-path:url(#clip-path-3);}.cls-6{fill:#e63947;}.cls-7,.cls-8{stroke:#2d2d2d;}.cls-7{stroke-miterlimit:10;stroke-width:0.78px;}.cls-8{stroke-linecap:round;stroke-linejoin:round;stroke-width:10.16px;}</style><clipPath id="clip-path"><rect class="cls-1" x="415.48" y="47.33" width="877.07" height="293.66"/></clipPath><clipPath id="clip-path-3"><rect class="cls-1" x="-1.09" y="-3.51" width="390.01" height="395.33"/></clipPath></defs><g class="cls-2"><g class="cls-2"><text class="cls-3" transform="translate(415.48 332.35)">DoX</text><text class="cls-4" transform="translate(415.48 645.62)">DoX</text></g></g><g class="cls-5"><polygon class="cls-6" points="272.41 9.2 272.41 248.75 146.69 376.06 9.83 376.06 9.83 9.2 272.41 9.2"/><polygon class="cls-7" points="272.41 9.2 272.41 248.75 146.69 376.06 9.83 376.06 9.83 9.2 272.41 9.2"/><polygon class="cls-6" points="272.41 9.2 272.41 248.75 146.69 376.06 9.83 376.06 9.83 9.2 272.41 9.2"/><g class="cls-5"><polygon class="cls-8" points="272.41 9.2 272.41 248.75 146.69 376.06 9.83 376.06 9.83 9.2 272.41 9.2"/></g><line class="cls-7" x1="55.22" y1="63.47" x2="129.11" y2="63.47"/><line class="cls-8" x1="55.22" y1="63.47" x2="129.11" y2="63.47"/><line class="cls-7" x1="55.22" y1="117.73" x2="214.28" y2="117.73"/><line class="cls-8" x1="55.22" y1="117.73" x2="214.28" y2="117.73"/><line class="cls-7" x1="55.22" y1="167.93" x2="209.55" y2="167.93"/><line class="cls-8" x1="55.22" y1="167.93" x2="209.55" y2="167.93"/><line class="cls-7" x1="55.22" y1="223.72" x2="118.29" y2="223.72"/><line class="cls-8" x1="55.22" y1="223.72" x2="118.29" y2="223.72"/><g class="cls-5"><path class="cls-9" d="M346.16,14.32,198.32,162.69a23,23,0,0,0,32.41,32.52L378.57,46.84Z"/><path class="cls-8" d="M346.16,14.32,198.32,162.69a23,23,0,0,0,32.41,32.52L378.57,46.84Z"/><polygon class="cls-6" points="196.32 164.7 228.73 197.22 169.91 223.72 196.32 164.7"/><polygon class="cls-7" points="196.32 164.7 228.73 197.22 169.91 223.72 196.32 164.7"/><path class="cls-9" d="M196.32,164.7l32.41,32.52-58.82,26.5Zm95-95.3,32.41,32.52"/><path class="cls-8" d="M196.32,164.7l32.41,32.52-58.82,26.5Zm95-95.3,32.41,32.52"/><polygon class="cls-6" points="150.8 253.32 150.8 259.58 162.5 253.32 150.8 253.32"/><polygon class="cls-7" points="150.8 253.32 150.8 259.58 162.5 253.32 150.8 253.32"/><polygon class="cls-6" points="146.9 298.72 146.9 333.17 211.65 310.47 260.79 260.37 146.9 298.72"/><polygon class="cls-7" points="146.9 298.72 146.9 333.17 211.65 310.47 260.79 260.37 146.9 298.72"/><path class="cls-6" d="M146.9,333.17v43.05C146.9,370,214,312,214,312Z"/><path class="cls-7" d="M146.9,333.17v43.05C146.9,370,214,312,214,312Z"/><polygon class="cls-6" points="146.51 264.67 146.51 299.12 265.08 256.84 265.08 249.01 187.07 249.01 146.51 264.67"/><polygon class="cls-7" points="146.51 264.67 146.51 299.12 265.08 256.84 265.08 249.01 187.07 249.01 146.51 264.67"/><path class="cls-6" d="M192,248.74l-45.33,15.63m114.48-4.24h0L146.69,298.75m65,11.49-65,22.89m9,33.84h0l-9,3.09"/><path class="cls-7" d="M192,248.74l-45.33,15.63m114.48-4.24h0L146.69,298.75m65,11.49-65,22.89m9,33.84h0l-9,3.09"/><polygon class="cls-9" points="272.41 248.75 146.69 376.06 146.69 248.75 272.41 248.75"/><polygon class="cls-8" points="272.41 248.75 146.69 376.06 146.69 248.75 272.41 248.75"/></g></g></svg>