<svg id="Livello_1" data-name="Livello 1" xmlns="http://www.w3.org/2000/svg" xmlns:xlink="http://www.w3.org/1999/xlink" viewBox="0 0 1292.55 391.82"><defs><style>.cls-1,.cls-3,.cls-4,.cls-6{fill:none;}.cls-2{clip-path:url(#clip-path);}.cls-3,.cls-4{stroke:#fff;}.cls-3{stroke-miterlimit:10;stroke-width:0.77px;}.cls-4,.cls-6{stroke-linecap:round;stroke-linejoin:round;stroke-width:10.03px;}.cls-10,.cls-5{fill:#fff;}.cls-6{stroke:#2d2d2d;}.cls-7{fill:#2d2d2d;}.cls-8{clip-path:url(#clip-path-4);}.cls-10,.cls-9{font-size:402.15px;font-family:JumperPERSONALUSEONLY-Extra-BoldItalic, Jumper PERSONAL USE ONLY;font-weight:700;font-style:italic;}.cls-9{fill:#e63948;}</style><clipPath id="clip-path"><rect class="cls-1" x="-3.33" width="385.65" height="389.5"/></clipPath><clipPath id="clip-path-4"><rect class="cls-1" x="415.48" y="43.82" width="877.07" height="293.66"/></clipPath></defs><g class="cls-2"><polygon class="cls-3" points="266.68 11.7 266.68 247.72 142.37 373.15 7.04 373.15 7.04 11.7 266.68 11.7"/><g class="cls-2"><polygon class="cls-4" points="266.68 11.7 266.68 247.72 142.37 373.15 7.04 373.15 7.04 11.7 266.68 11.7"/></g><line class="cls-3" x1="51.92" y1="65.16" x2="124.99" y2="65.16"/><line class="cls-4" x1="51.92" y1="65.16" x2="124.99" y2="65.16"/><line class="cls-3" x1="51.92" y1="118.63" x2="209.21" y2="118.63"/><line class="cls-4" x1="51.92" y1="118.63" x2="209.21" y2="118.63"/><line class="cls-3" x1="51.92" y1="168.09" x2="204.53" y2="168.09"/><line class="cls-4" x1="51.92" y1="168.09" x2="204.53" y2="168.09"/><line class="cls-3" x1="51.92" y1="223.06" x2="114.29" y2="223.06"/><line class="cls-4" x1="51.92" y1="223.06" x2="114.29" y2="223.06"/><g class="cls-2"><path class="cls-5" d="M339.61,16.74,193.43,162.92a22.66,22.66,0,1,0,32,32.05L371.66,48.78Z"/><path class="cls-3" d="M339.61,16.74,193.43,162.92a22.66,22.66,0,1,0,32,32.05L371.66,48.78Z"/><path class="cls-6" d="M339.61,16.74,193.43,162.92a22.66,22.66,0,1,0,32,32.05L371.66,48.78Z"/><polygon class="cls-5" points="191.45 164.9 223.49 196.95 165.34 223.06 191.45 164.9"/><path class="cls-6" d="M191.45,164.9l32,32-58.15,26.11ZM285.34,71l32.05,32"/><polygon class="cls-7" points="146.44 252.22 146.44 258.39 158.01 252.22 146.44 252.22"/><polygon class="cls-3" points="146.44 252.22 146.44 258.39 158.01 252.22 146.44 252.22"/><polygon class="cls-7" points="142.58 296.95 142.58 330.89 206.6 308.52 255.19 259.16 142.58 296.95"/><polygon class="cls-3" points="142.58 296.95 142.58 330.89 206.6 308.52 255.19 259.16 142.58 296.95"/><path class="cls-7" d="M142.58,330.89v42.42c0-6.17,66.34-63.24,66.34-63.24Z"/><path class="cls-3" d="M142.58,330.89v42.42c0-6.17,66.34-63.24,66.34-63.24Z"/><polygon class="cls-7" points="142.2 263.4 142.2 297.34 259.44 255.69 259.44 247.98 182.31 247.98 142.2 263.4"/><polygon class="cls-3" points="142.2 263.4 142.2 297.34 259.44 255.69 259.44 247.98 182.31 247.98 142.2 263.4"/><path class="cls-4" d="M187.19,247.71l-44.82,15.4m113.2-4.18h0L142.37,297m64.27,11.32-64.27,22.56m8.89,33.33h0l-8.87,3.05"/><polygon class="cls-4" points="266.68 247.72 142.37 373.15 142.37 247.72 266.68 247.72"/></g></g><g class="cls-8"><g class="cls-8"><text class="cls-9" transform="translate(415.48 15.41)">DoX</text><text class="cls-10" transform="translate(415.48 328.68)">DoX</text></g></g></svg>