<svg id="Livello_1" data-name="Livello 1" xmlns="http://www.w3.org/2000/svg" xmlns:xlink="http://www.w3.org/1999/xlink" viewBox="0 0 291.81 293.66"><defs><style>.cls-1,.cls-3,.cls-4,.cls-6{fill:none;}.cls-2{clip-path:url(#clip-path);}.cls-3,.cls-4{stroke:#fff;}.cls-3{stroke-miterlimit:10;stroke-width:0.58px;}.cls-4,.cls-6{stroke-linecap:round;stroke-linejoin:round;stroke-width:7.56px;}.cls-5{fill:#fff;}.cls-6{stroke:#2d2d2d;}.cls-7{fill:#2d2d2d;}</style><clipPath id="clip-path"><rect class="cls-1" width="290.76" height="293.66"/></clipPath></defs><g class="cls-2"><polygon class="cls-3" points="203.57 8.82 203.57 186.76 109.85 281.33 7.82 281.33 7.82 8.82 203.57 8.82"/><g class="cls-2"><polygon class="cls-4" points="203.57 8.82 203.57 186.76 109.85 281.33 7.82 281.33 7.82 8.82 203.57 8.82"/></g><line class="cls-3" x1="41.65" y1="49.13" x2="96.74" y2="49.13"/><line class="cls-4" x1="41.65" y1="49.13" x2="96.74" y2="49.13"/><line class="cls-3" x1="41.65" y1="89.44" x2="160.24" y2="89.44"/><line class="cls-4" x1="41.65" y1="89.44" x2="160.24" y2="89.44"/><line class="cls-3" x1="41.65" y1="126.73" x2="156.71" y2="126.73"/><line class="cls-4" x1="41.65" y1="126.73" x2="156.71" y2="126.73"/><line class="cls-3" x1="41.65" y1="168.17" x2="88.67" y2="168.17"/><line class="cls-4" x1="41.65" y1="168.17" x2="88.67" y2="168.17"/><g class="cls-2"><path class="cls-5" d="M258.55,12.62,148.34,122.83A17.08,17.08,0,0,0,172.5,147L282.72,36.78Z"/><path class="cls-3" d="M258.55,12.62,148.34,122.83A17.08,17.08,0,0,0,172.5,147L282.72,36.78Z"/><path class="cls-6" d="M258.55,12.62,148.34,122.83A17.08,17.08,0,0,0,172.5,147L282.72,36.78Z"/><polygon class="cls-5" points="146.85 124.33 171.01 148.49 127.16 168.17 146.85 124.33"/><path class="cls-6" d="M146.85,124.33,171,148.49l-43.85,19.68Zm70.79-70.8L241.8,77.7"/><polygon class="cls-7" points="112.92 190.16 112.92 194.81 121.64 190.16 112.92 190.16"/><polygon class="cls-3" points="112.92 190.16 112.92 194.81 121.64 190.16 112.92 190.16"/><polygon class="cls-7" points="110.01 223.89 110.01 249.47 158.27 232.61 194.91 195.39 110.01 223.89"/><polygon class="cls-3" points="110.01 223.89 110.01 249.47 158.27 232.61 194.91 195.39 110.01 223.89"/><path class="cls-7" d="M110,249.47v32c0-4.66,50-47.69,50-47.69Z"/><path class="cls-3" d="M110,249.47v32c0-4.66,50-47.69,50-47.69Z"/><polygon class="cls-7" points="109.72 198.59 109.72 224.18 198.11 192.78 198.11 186.96 139.96 186.96 109.72 198.59"/><polygon class="cls-3" points="109.72 198.59 109.72 224.18 198.11 192.78 198.11 186.96 139.96 186.96 109.72 198.59"/><path class="cls-4" d="M143.64,186.76l-33.79,11.61m85.34-3.15h0l-85.33,28.69m48.45,8.53-48.45,17m6.69,25.13h0l-6.69,2.3"/><polygon class="cls-4" points="203.57 186.76 109.85 281.33 109.85 186.76 203.57 186.76"/></g></g></svg>