<svg id="Livello_1" data-name="Livello 1" xmlns="http://www.w3.org/2000/svg" xmlns:xlink="http://www.w3.org/1999/xlink" viewBox="0 0 291.81 293.66"><defs><style>.cls-1,.cls-3,.cls-5,.cls-7{fill:none;}.cls-2{clip-path:url(#clip-path);}.cls-3,.cls-5{stroke:#fff;}.cls-3{stroke-miterlimit:10;stroke-width:0.58px;}.cls-4{clip-path:url(#clip-path-2);}.cls-5,.cls-7{stroke-linecap:round;stroke-linejoin:round;stroke-width:7.53px;}.cls-6{fill:#fff;}.cls-7{stroke:#2d2d2e;}.cls-8{fill:#2d2d2e;}</style><clipPath id="clip-path"><rect class="cls-1" x="-1.36" y="0.26" width="290.24" height="293.14"/></clipPath><clipPath id="clip-path-2"><rect class="cls-1" x="-1.36" y="0.26" width="289.19" height="293.14"/></clipPath></defs><g class="cls-2"><polygon class="cls-3" points="201.12 9.07 201.12 186.69 107.9 281.09 6.42 281.09 6.42 9.07 201.12 9.07"/><g class="cls-4"><polygon class="cls-5" points="201.12 9.07 201.12 186.69 107.9 281.09 6.42 281.09 6.42 9.07 201.12 9.07"/></g><line class="cls-3" x1="40.07" y1="49.31" x2="94.87" y2="49.31"/><line class="cls-5" x1="40.07" y1="49.31" x2="94.87" y2="49.31"/><line class="cls-3" x1="40.07" y1="89.54" x2="158.02" y2="89.54"/><line class="cls-5" x1="40.07" y1="89.54" x2="158.02" y2="89.54"/><line class="cls-3" x1="40.07" y1="126.77" x2="154.51" y2="126.77"/><line class="cls-5" x1="40.07" y1="126.77" x2="154.51" y2="126.77"/><line class="cls-3" x1="40.07" y1="168.13" x2="86.84" y2="168.13"/><line class="cls-5" x1="40.07" y1="168.13" x2="86.84" y2="168.13"/><g class="cls-4"><path class="cls-6" d="M255.81,12.86l-109.63,110a17,17,0,1,0,24,24.11L279.84,37Z"/><path class="cls-3" d="M255.81,12.86l-109.63,110a17,17,0,1,0,24,24.11L279.84,37Z"/><path class="cls-7" d="M255.81,12.86l-109.63,110a17,17,0,1,0,24,24.11L279.84,37Z"/><polygon class="cls-6" points="144.7 124.37 168.73 148.48 125.12 168.13 144.7 124.37"/><path class="cls-7" d="M144.7,124.37l24,24.11-43.61,19.65ZM215.11,53.7l24,24.12"/><polygon class="cls-8" points="110.95 190.08 110.95 194.72 119.63 190.08 110.95 190.08"/><polygon class="cls-3" points="110.95 190.08 110.95 194.72 119.63 190.08 110.95 190.08"/><polygon class="cls-8" points="108.06 223.75 108.06 249.29 156.06 232.46 192.5 195.31 108.06 223.75"/><polygon class="cls-3" points="108.06 223.75 108.06 249.29 156.06 232.46 192.5 195.31 108.06 223.75"/><path class="cls-8" d="M108.06,249.29v31.92c0-4.64,49.74-47.59,49.74-47.59Z"/><path class="cls-3" d="M108.06,249.29v31.92c0-4.64,49.74-47.59,49.74-47.59Z"/><polygon class="cls-8" points="107.77 198.5 107.77 224.04 195.68 192.69 195.68 186.89 137.84 186.89 107.77 198.5"/><polygon class="cls-3" points="107.77 198.5 107.77 224.04 195.68 192.69 195.68 186.89 137.84 186.89 107.77 198.5"/><path class="cls-5" d="M141.51,186.69,107.9,198.27m84.89-3.14h0L107.9,223.77m48.19,8.52-48.19,17m6.66,25.09h0l-6.65,2.3"/><polygon class="cls-5" points="201.12 186.69 107.9 281.09 107.9 186.69 201.12 186.69"/></g></g></svg>