<svg id="Livello_1" data-name="Livello 1" xmlns="http://www.w3.org/2000/svg" xmlns:xlink="http://www.w3.org/1999/xlink" viewBox="0 0 291.81 293.66"><defs><style>.cls-1,.cls-4,.cls-5{fill:none;}.cls-2{clip-path:url(#clip-path);}.cls-3{fill:#e63947;}.cls-4,.cls-5{stroke:#2d2d2d;}.cls-4{stroke-miterlimit:10;stroke-width:0.58px;}.cls-5{stroke-linecap:round;stroke-linejoin:round;stroke-width:7.55px;}.cls-6{fill:#fff;}</style><clipPath id="clip-path"><rect class="cls-1" x="-1.09" width="289.71" height="293.66"/></clipPath></defs><g class="cls-2"><polygon class="cls-3" points="202.07 9.44 202.07 187.38 108.69 281.95 7.02 281.95 7.02 9.44 202.07 9.44"/><polygon class="cls-4" points="202.07 9.44 202.07 187.38 108.69 281.95 7.02 281.95 7.02 9.44 202.07 9.44"/><polygon class="cls-3" points="202.07 9.44 202.07 187.38 108.69 281.95 7.02 281.95 7.02 9.44 202.07 9.44"/><g class="cls-2"><polygon class="cls-5" points="202.07 9.44 202.07 187.38 108.69 281.95 7.02 281.95 7.02 9.44 202.07 9.44"/></g><line class="cls-4" x1="40.74" y1="49.75" x2="95.63" y2="49.75"/><line class="cls-5" x1="40.74" y1="49.75" x2="95.63" y2="49.75"/><line class="cls-4" x1="40.74" y1="90.06" x2="158.89" y2="90.06"/><line class="cls-5" x1="40.74" y1="90.06" x2="158.89" y2="90.06"/><line class="cls-4" x1="40.74" y1="127.35" x2="155.38" y2="127.35"/><line class="cls-5" x1="40.74" y1="127.35" x2="155.38" y2="127.35"/><line class="cls-4" x1="40.74" y1="168.79" x2="87.59" y2="168.79"/><line class="cls-5" x1="40.74" y1="168.79" x2="87.59" y2="168.79"/><g class="cls-2"><path class="cls-6" d="M256.86,13.24,147,123.46a17.05,17.05,0,1,0,24.07,24.16L280.93,37.4Z"/><path class="cls-5" d="M256.86,13.24,147,123.46a17.05,17.05,0,1,0,24.07,24.16L280.93,37.4Z"/><polygon class="cls-3" points="145.55 124.95 169.63 149.11 125.94 168.79 145.55 124.95"/><polygon class="cls-4" points="145.55 124.95 169.63 149.11 125.94 168.79 145.55 124.95"/><path class="cls-6" d="M145.55,125l24.08,24.16-43.69,19.68Zm70.54-70.79,24.07,24.16"/><path class="cls-5" d="M145.55,125l24.08,24.16-43.69,19.68Zm70.54-70.79,24.07,24.16"/><polygon class="cls-3" points="111.74 190.78 111.74 195.43 120.43 190.78 111.74 190.78"/><polygon class="cls-4" points="111.74 190.78 111.74 195.43 120.43 190.78 111.74 190.78"/><polygon class="cls-3" points="108.84 224.51 108.84 250.09 156.94 233.23 193.44 196.01 108.84 224.51"/><polygon class="cls-4" points="108.84 224.51 108.84 250.09 156.94 233.23 193.44 196.01 108.84 224.51"/><path class="cls-3" d="M108.84,250.09v32c0-4.66,49.84-47.69,49.84-47.69Z"/><path class="cls-4" d="M108.84,250.09v32c0-4.66,49.84-47.69,49.84-47.69Z"/><polygon class="cls-3" points="108.56 199.21 108.56 224.8 196.63 193.4 196.63 187.58 138.69 187.58 108.56 199.21"/><polygon class="cls-4" points="108.56 199.21 108.56 224.8 196.63 193.4 196.63 187.58 138.69 187.58 108.56 199.21"/><path class="cls-3" d="M142.36,187.38,108.69,199m85-3.15h0l-85,28.69M157,233.06l-48.28,17m6.67,25.13h0l-6.66,2.3"/><path class="cls-4" d="M142.36,187.38,108.69,199m85-3.15h0l-85,28.69M157,233.06l-48.28,17m6.67,25.13h0l-6.66,2.3"/><polygon class="cls-6" points="202.07 187.38 108.69 281.95 108.69 187.38 202.07 187.38"/><polygon class="cls-5" points="202.07 187.38 108.69 281.95 108.69 187.38 202.07 187.38"/></g></g></svg>