<?xml version="1.0" encoding="UTF-8"?>
<svg xmlns="http://www.w3.org/2000/svg" xmlns:xlink="http://www.w3.org/1999/xlink" width="16px" height="16px" viewBox="0 0 16 16" version="1.1">
<g id="surface1">
<path style=" stroke:none;fill-rule:nonzero;fill:rgb(0%,0%,0%);fill-opacity:1;" d="M 2.253906 3.515625 C 2.253906 4.84375 3.28125 5.933594 4.582031 6.03125 C 4.167969 5.285156 3.933594 4.429688 3.933594 3.515625 C 3.933594 2.605469 4.167969 1.75 4.582031 1.003906 C 3.28125 1.101562 2.253906 2.191406 2.253906 3.515625 Z M 2.253906 3.515625 "/>
<path style=" stroke:none;fill-rule:nonzero;fill:rgb(0%,0%,0%);fill-opacity:1;" d="M 5.664062 7.8125 C 5.375 7.75 5.074219 7.71875 4.773438 7.71875 C 2.375 7.71875 0.425781 9.671875 0.425781 12.070312 C 0.425781 12.535156 0.800781 12.910156 1.265625 12.910156 L 1.320312 12.910156 C 1.972656 10.65625 3.574219 8.800781 5.664062 7.8125 Z M 5.664062 7.8125 "/>
<path style=" stroke:none;fill-rule:nonzero;fill:rgb(0%,0%,0%);fill-opacity:1;" d="M 9.132812 7.035156 C 11.070312 7.035156 12.648438 5.457031 12.648438 3.515625 C 12.648438 1.578125 11.070312 0 9.132812 0 C 7.949219 0 6.902344 0.585938 6.265625 1.484375 C 5.855469 2.058594 5.613281 2.757812 5.613281 3.515625 C 5.613281 4.273438 5.855469 4.976562 6.265625 5.550781 C 6.902344 6.445312 7.949219 7.035156 9.132812 7.035156 Z M 9.132812 7.035156 "/>
<path style=" stroke:none;fill-rule:nonzero;fill:rgb(0%,0%,0%);fill-opacity:1;" d="M 15.574219 15.160156 C 15.574219 11.605469 12.683594 8.714844 9.132812 8.714844 C 8.648438 8.714844 8.175781 8.769531 7.722656 8.871094 C 5.585938 9.347656 3.847656 10.890625 3.089844 12.910156 C 2.828125 13.609375 2.6875 14.367188 2.6875 15.160156 C 2.6875 15.625 3.0625 16 3.527344 16 L 14.734375 16 C 15.199219 16 15.574219 15.625 15.574219 15.160156 Z M 15.574219 15.160156 "/>
</g>
</svg>
