<svg id="Livello_1" data-name="Livello 1" xmlns="http://www.w3.org/2000/svg" xmlns:xlink="http://www.w3.org/1999/xlink" viewBox="0 0 1292.55 391.82"><defs><style>.cls-1,.cls-10,.cls-6,.cls-8{fill:none;}.cls-2{clip-path:url(#clip-path);}.cls-3,.cls-4{font-size:402.15px;font-family:JumperPERSONALUSEONLY-Extra-BoldItalic, Jumper PERSONAL USE ONLY;font-weight:700;font-style:italic;}.cls-3{fill:#e63949;}.cls-4,.cls-9{fill:#fff;}.cls-5{clip-path:url(#clip-path-3);}.cls-6,.cls-8{stroke:#fff;}.cls-6{stroke-miterlimit:10;stroke-width:0.78px;}.cls-7{clip-path:url(#clip-path-4);}.cls-10,.cls-8{stroke-linecap:round;stroke-linejoin:round;stroke-width:10.14px;}.cls-10{stroke:#2d2d2e;}.cls-11{fill:#2d2d2e;}</style><clipPath id="clip-path"><rect class="cls-1" x="415.48" y="47.33" width="877.07" height="293.66"/></clipPath><clipPath id="clip-path-3"><rect class="cls-1" x="-1.45" y="-3.15" width="390.72" height="394.62"/></clipPath><clipPath id="clip-path-4"><rect class="cls-1" x="-1.45" y="-3.15" width="389.31" height="394.62"/></clipPath></defs><g class="cls-2"><g class="cls-2"><text class="cls-3" transform="translate(415.48 332.35)">DoX</text><text class="cls-4" transform="translate(415.48 645.62)">DoX</text></g></g><g class="cls-5"><polygon class="cls-6" points="271.12 8.7 271.12 247.82 145.63 374.9 9.02 374.9 9.02 8.7 271.12 8.7"/><g class="cls-7"><polygon class="cls-8" points="271.12 8.7 271.12 247.82 145.63 374.9 9.02 374.9 9.02 8.7 271.12 8.7"/></g><line class="cls-6" x1="54.32" y1="62.87" x2="128.09" y2="62.87"/><line class="cls-8" x1="54.32" y1="62.87" x2="128.09" y2="62.87"/><line class="cls-6" x1="54.32" y1="117.04" x2="213.1" y2="117.04"/><line class="cls-8" x1="54.32" y1="117.04" x2="213.1" y2="117.04"/><line class="cls-6" x1="54.32" y1="167.14" x2="208.37" y2="167.14"/><line class="cls-8" x1="54.32" y1="167.14" x2="208.37" y2="167.14"/><line class="cls-6" x1="54.32" y1="222.83" x2="117.28" y2="222.83"/><line class="cls-8" x1="54.32" y1="222.83" x2="117.28" y2="222.83"/><g class="cls-7"><path class="cls-9" d="M344.74,13.81,197.17,161.91a22.92,22.92,0,0,0,32.35,32.47L377.09,46.27Z"/><path class="cls-6" d="M344.74,13.81,197.17,161.91a22.92,22.92,0,0,0,32.35,32.47L377.09,46.27Z"/><path class="cls-10" d="M344.74,13.81,197.17,161.91a22.92,22.92,0,0,0,32.35,32.47L377.09,46.27Z"/><polygon class="cls-9" points="195.17 163.91 227.52 196.38 168.81 222.83 195.17 163.91"/><path class="cls-10" d="M195.17,163.91l32.35,32.47-58.71,26.45ZM290,68.79l32.35,32.46"/><polygon class="cls-11" points="149.74 252.38 149.74 258.63 161.42 252.38 149.74 252.38"/><polygon class="cls-6" points="149.74 252.38 149.74 258.63 161.42 252.38 149.74 252.38"/><polygon class="cls-11" points="145.84 297.7 145.84 332.08 210.47 309.42 259.52 259.41 145.84 297.7"/><polygon class="cls-6" points="145.84 297.7 145.84 332.08 210.47 309.42 259.52 259.41 145.84 297.7"/><path class="cls-11" d="M145.84,332.08v43c0-6.25,67-64.07,67-64.07Z"/><path class="cls-6" d="M145.84,332.08v43c0-6.25,67-64.07,67-64.07Z"/><polygon class="cls-11" points="145.46 263.71 145.46 298.09 263.81 255.9 263.81 248.08 185.94 248.08 145.46 263.71"/><polygon class="cls-6" points="145.46 263.71 145.46 298.09 263.81 255.9 263.81 248.08 185.94 248.08 145.46 263.71"/><path class="cls-8" d="M190.88,247.81l-45.25,15.6m114.27-4.23h0L145.63,297.73m64.88,11.47-64.88,22.85m9,33.77h0l-9,3.09"/><polygon class="cls-8" points="271.12 247.82 145.63 374.9 145.63 247.82 271.12 247.82"/></g></g></svg>