<svg id="Livello_1" data-name="Livello 1" xmlns="http://www.w3.org/2000/svg" xmlns:xlink="http://www.w3.org/1999/xlink" viewBox="0 0 877.07 293.66"><defs><style>.cls-1{fill:none;}.cls-2{clip-path:url(#clip-path);}.cls-3{fill:#fff;}</style><clipPath id="clip-path"><rect class="cls-1" width="877.07" height="293.66"/></clipPath></defs><g class="cls-2"><g class="cls-2"><path class="cls-3" d="M63.84,2.47h83L104.76,284.32h-83ZM91,2.47h84.9q36.32,0,60.61,19.06t34,51.1q9.75,32,4,71a184.24,184.24,0,0,1-24.86,68.13,161.73,161.73,0,0,1-49.9,52.51,119.28,119.28,0,0,1-67.12,20.08h-99ZM133.82,217q13.77,0,26.77-9.33t22.75-26.77q9.75-17.43,12.43-40.14Q200.36,105.48,190,87t-31-18.45H99.4L80.66,217Z"/><path class="cls-3" d="M331.91,276.81q-26-15.19-37.67-41.36t-6.69-57.38A122.41,122.41,0,0,1,313,120.48a145.39,145.39,0,0,1,51.25-41q30.78-15,66.73-15,36.33,0,62.53,15T531,120.28q11.28,25.75,6.31,57.38a128,128,0,0,1-25.62,57.79,145,145,0,0,1-50.86,41.36Q430.19,292,393.48,292q-35.57,0-61.57-15.21m97.33-55.35a54.54,54.54,0,0,0,19.69-17.85,63.1,63.1,0,0,0,9.95-25.54q2.67-14.19-1.15-25.55a35.46,35.46,0,0,0-13.2-18.05q-9.36-6.69-23.51-6.69a53.06,53.06,0,0,0-26.2,6.69,59.31,59.31,0,0,0-20.08,18.25,61.57,61.57,0,0,0-10.32,24.94q-2.3,14.21,1.53,25.55a34.75,34.75,0,0,0,13.57,18Q389.27,228,403,228a54.34,54.34,0,0,0,26.2-6.49"/><polygon class="cls-3" points="684.88 173.2 622.93 284.32 525.41 284.32 613.75 140.35 567.1 2.47 660.03 2.47 693.3 105.07 752.57 2.47 853.53 2.47 765.57 135.89 816.05 284.32 723.13 284.32 684.88 173.2"/></g></g></svg>