<svg id="Livello_1" data-name="Livello 1" xmlns="http://www.w3.org/2000/svg" xmlns:xlink="http://www.w3.org/1999/xlink" viewBox="0 0 1292.55 391.82"><defs><style>.cls-1,.cls-5,.cls-7{fill:none;}.cls-2{clip-path:url(#clip-path);}.cls-3{fill:#e63948;}.cls-4{clip-path:url(#clip-path-3);}.cls-5,.cls-7{stroke:#2d2d2e;}.cls-5{stroke-miterlimit:10;stroke-width:0.77px;}.cls-6{clip-path:url(#clip-path-4);}.cls-7{stroke-linecap:round;stroke-linejoin:round;stroke-width:9.99px;}.cls-8{fill:#fff;}</style><clipPath id="clip-path"><rect class="cls-1" x="415.48" y="49.08" width="877.07" height="293.66"/></clipPath><clipPath id="clip-path-3"><rect class="cls-1" x="-3.68" y="0.35" width="386.35" height="388.8"/></clipPath><clipPath id="clip-path-4"><rect class="cls-1" x="-3.68" y="0.35" width="382.13" height="388.8"/></clipPath></defs><g class="cls-2"><g class="cls-2"><path class="cls-3" d="M479.32,51.55h83L520.24,333.39h-83Zm27.15,0h84.9q36.33,0,60.61,19.06t34,51.1q9.75,32,4,71a184.29,184.29,0,0,1-24.85,68.12,161.8,161.8,0,0,1-49.91,52.52,119.27,119.27,0,0,1-67.12,20.07h-99ZM549.3,266.08q13.77,0,26.77-9.33T598.82,230q9.76-17.43,12.43-40.14,4.59-35.28-5.73-53.74t-31-18.45H514.88L496.14,266.08Z"/><path class="cls-3" d="M747.39,325.89q-26-15.21-37.66-41.36T703,227.14a122.37,122.37,0,0,1,25.43-57.58,145.39,145.39,0,0,1,51.25-41q30.78-15,66.73-15,36.33,0,62.53,15t37.48,40.76q11.26,25.75,6.3,57.38a128,128,0,0,1-25.62,57.79,145,145,0,0,1-50.86,41.36Q845.67,341.1,809,341.1q-35.57,0-61.57-15.21m97.33-55.35a54.65,54.65,0,0,0,19.7-17.85,63.21,63.21,0,0,0,9.94-25.55Q877,213,873.21,201.6a35.5,35.5,0,0,0-13.19-18q-9.37-6.69-23.52-6.69a53.06,53.06,0,0,0-26.2,6.69,59.08,59.08,0,0,0-20.07,18.25,61.39,61.39,0,0,0-10.33,24.94q-2.29,14.2,1.53,25.55a34.65,34.65,0,0,0,13.58,18q9.75,6.71,23.51,6.7a54.46,54.46,0,0,0,26.2-6.49"/><polygon class="cls-3" points="1100.36 222.28 1038.41 333.39 940.89 333.39 1029.23 189.43 982.58 51.55 1075.51 51.55 1108.78 154.15 1168.05 51.55 1269.01 51.55 1181.06 184.97 1231.54 333.39 1138.61 333.39 1100.36 222.28"/></g></g><g class="cls-4"><polygon class="cls-3" points="5.62 373.65 5.62 12.85 263.86 12.85 263.86 248.44 140.22 373.65 5.62 373.65"/><polygon class="cls-5" points="263.86 12.85 263.86 248.44 140.22 373.65 5.62 373.65 5.62 12.85 263.86 12.85"/><polygon class="cls-3" points="5.62 373.65 5.62 12.85 263.86 12.85 263.86 248.44 140.22 373.65 5.62 373.65"/><g class="cls-6"><polygon class="cls-7" points="263.86 12.85 263.86 248.44 140.22 373.65 5.62 373.65 5.62 12.85 263.86 12.85"/></g><line class="cls-5" x1="50.26" y1="66.22" x2="122.93" y2="66.22"/><line class="cls-7" x1="50.26" y1="66.22" x2="122.93" y2="66.22"/><line class="cls-5" x1="50.26" y1="119.59" x2="206.69" y2="119.59"/><line class="cls-7" x1="50.26" y1="119.59" x2="206.69" y2="119.59"/><line class="cls-5" x1="50.26" y1="168.96" x2="202.04" y2="168.96"/><line class="cls-7" x1="50.26" y1="168.96" x2="202.04" y2="168.96"/><line class="cls-5" x1="50.26" y1="223.83" x2="112.29" y2="223.83"/><line class="cls-7" x1="50.26" y1="223.83" x2="112.29" y2="223.83"/><g class="cls-6"><path class="cls-8" d="M336.4,17.88,191,163.8a22.58,22.58,0,1,0,31.87,32L368.27,49.87Z"/><path class="cls-7" d="M336.4,17.88,191,163.8a22.58,22.58,0,1,0,31.87,32L368.27,49.87Z"/><polygon class="cls-3" points="189.03 165.78 220.91 197.76 163.06 223.83 189.03 165.78"/><polygon class="cls-5" points="189.03 165.78 220.91 197.76 163.06 223.83 189.03 165.78"/><path class="cls-8" d="M189,165.78l31.88,32-57.85,26.07Zm93.39-93.73,31.88,32"/><path class="cls-7" d="M189,165.78l31.88,32-57.85,26.07Zm93.39-93.73,31.88,32"/><polygon class="cls-3" points="144.27 252.94 144.27 259.1 155.77 252.94 144.27 252.94"/><polygon class="cls-5" points="144.27 252.94 144.27 259.1 155.77 252.94 144.27 252.94"/><polygon class="cls-3" points="140.43 297.59 140.43 331.47 204.1 309.14 252.43 259.87 140.43 297.59"/><polygon class="cls-5" points="140.43 297.59 140.43 331.47 204.1 309.14 252.43 259.87 140.43 297.59"/><path class="cls-3" d="M140.43,331.47v42.34c0-6.15,66-63.13,66-63.13Z"/><path class="cls-5" d="M140.43,331.47v42.34c0-6.15,66-63.13,66-63.13Z"/><polygon class="cls-3" points="140.05 264.1 140.05 297.98 256.65 256.4 256.65 248.7 179.94 248.7 140.05 264.1"/><polygon class="cls-5" points="140.05 264.1 140.05 297.98 256.65 256.4 256.65 248.7 179.94 248.7 140.05 264.1"/><path class="cls-3" d="M184.8,248.44l-44.58,15.37m112.59-4.17h0l-112.58,38m63.92,11.3-63.92,22.52m8.84,33.27h0l-8.82,3"/><path class="cls-5" d="M184.8,248.44l-44.58,15.37m112.59-4.17h0l-112.58,38m63.92,11.3-63.92,22.52m8.84,33.27h0l-8.82,3"/><polygon class="cls-8" points="263.86 248.44 140.22 373.65 140.22 248.44 263.86 248.44"/><polygon class="cls-7" points="263.86 248.44 140.22 373.65 140.22 248.44 263.86 248.44"/></g></g></svg>