<svg id="Livello_1" data-name="Livello 1" xmlns="http://www.w3.org/2000/svg" xmlns:xlink="http://www.w3.org/1999/xlink" viewBox="0 0 1292.55 391.82"><defs><style>.cls-1,.cls-3,.cls-5,.cls-7{fill:none;}.cls-2{clip-path:url(#clip-path);}.cls-3,.cls-5{stroke:#fff;}.cls-3{stroke-miterlimit:10;stroke-width:0.78px;}.cls-4{clip-path:url(#clip-path-2);}.cls-5,.cls-7{stroke-linecap:round;stroke-linejoin:round;stroke-width:10.14px;}.cls-6{fill:#fff;}.cls-7{stroke:#2d2d2e;}.cls-8{fill:#2d2d2e;}.cls-9{clip-path:url(#clip-path-4);}</style><clipPath id="clip-path"><rect class="cls-1" x="-1.45" y="-3.15" width="390.72" height="394.62"/></clipPath><clipPath id="clip-path-2"><rect class="cls-1" x="-1.45" y="-3.15" width="389.31" height="394.62"/></clipPath><clipPath id="clip-path-4"><rect class="cls-1" x="415.48" y="52.58" width="877.07" height="293.66"/></clipPath></defs><g class="cls-2"><polygon class="cls-3" points="271.12 8.7 271.12 247.82 145.63 374.9 9.02 374.9 9.02 8.7 271.12 8.7"/><g class="cls-4"><polygon class="cls-5" points="271.12 8.7 271.12 247.82 145.63 374.9 9.02 374.9 9.02 8.7 271.12 8.7"/></g><line class="cls-3" x1="54.32" y1="62.87" x2="128.09" y2="62.87"/><line class="cls-5" x1="54.32" y1="62.87" x2="128.09" y2="62.87"/><line class="cls-3" x1="54.32" y1="117.04" x2="213.1" y2="117.04"/><line class="cls-5" x1="54.32" y1="117.04" x2="213.1" y2="117.04"/><line class="cls-3" x1="54.32" y1="167.14" x2="208.37" y2="167.14"/><line class="cls-5" x1="54.32" y1="167.14" x2="208.37" y2="167.14"/><line class="cls-3" x1="54.32" y1="222.83" x2="117.28" y2="222.83"/><line class="cls-5" x1="54.32" y1="222.83" x2="117.28" y2="222.83"/><g class="cls-4"><path class="cls-6" d="M344.74,13.81,197.17,161.91a22.92,22.92,0,0,0,32.35,32.47L377.09,46.27Z"/><path class="cls-3" d="M344.74,13.81,197.17,161.91a22.92,22.92,0,0,0,32.35,32.47L377.09,46.27Z"/><path class="cls-7" d="M344.74,13.81,197.17,161.91a22.92,22.92,0,0,0,32.35,32.47L377.09,46.27Z"/><polygon class="cls-6" points="195.17 163.91 227.52 196.38 168.81 222.83 195.17 163.91"/><path class="cls-7" d="M195.17,163.91l32.35,32.47-58.71,26.45ZM290,68.79l32.35,32.46"/><polygon class="cls-8" points="149.74 252.38 149.74 258.63 161.42 252.38 149.74 252.38"/><polygon class="cls-3" points="149.74 252.38 149.74 258.63 161.42 252.38 149.74 252.38"/><polygon class="cls-8" points="145.84 297.7 145.84 332.08 210.47 309.42 259.52 259.41 145.84 297.7"/><polygon class="cls-3" points="145.84 297.7 145.84 332.08 210.47 309.42 259.52 259.41 145.84 297.7"/><path class="cls-8" d="M145.84,332.08v43c0-6.25,67-64.07,67-64.07Z"/><path class="cls-3" d="M145.84,332.08v43c0-6.25,67-64.07,67-64.07Z"/><polygon class="cls-8" points="145.46 263.71 145.46 298.09 263.81 255.9 263.81 248.08 185.94 248.08 145.46 263.71"/><polygon class="cls-3" points="145.46 263.71 145.46 298.09 263.81 255.9 263.81 248.08 185.94 248.08 145.46 263.71"/><path class="cls-5" d="M190.88,247.81l-45.25,15.6m114.27-4.23h0L145.63,297.73m64.88,11.47-64.88,22.85m9,33.77h0l-9,3.09"/><polygon class="cls-5" points="271.12 247.82 145.63 374.9 145.63 247.82 271.12 247.82"/></g></g><g class="cls-9"><g class="cls-9"><path class="cls-6" d="M479.32,55.06h83L520.24,336.9h-83Zm27.15,0h84.9q36.33,0,60.61,19.06t34,51.09q9.75,32,4,71a184.4,184.4,0,0,1-24.85,68.13,162,162,0,0,1-49.91,52.52,119.27,119.27,0,0,1-67.12,20.07h-99ZM549.3,269.58q13.77,0,26.77-9.32t22.75-26.77q9.76-17.43,12.43-40.15,4.59-35.28-5.73-53.73t-31-18.45H514.88L496.14,269.58Z"/><path class="cls-6" d="M747.39,329.4q-26-15.21-37.66-41.37T703,230.65a122.41,122.41,0,0,1,25.43-57.59,145.37,145.37,0,0,1,51.25-40.95,150.27,150.27,0,0,1,66.73-15q36.33,0,62.53,15t37.48,40.75q11.26,25.75,6.3,57.38A128,128,0,0,1,927.13,288a145.08,145.08,0,0,1-50.86,41.37q-30.6,15.21-67.31,15.21-35.57,0-61.57-15.21M844.72,274a54.71,54.71,0,0,0,19.7-17.84,63.27,63.27,0,0,0,9.94-25.55q2.67-14.19-1.15-25.55a35.52,35.52,0,0,0-13.19-18q-9.37-6.7-23.52-6.7a53,53,0,0,0-26.2,6.7,59.16,59.16,0,0,0-20.07,18.24,61.45,61.45,0,0,0-10.33,24.94q-2.29,14.2,1.53,25.55a34.64,34.64,0,0,0,13.58,18q9.75,6.69,23.51,6.69a54.34,54.34,0,0,0,26.2-6.49"/><polygon class="cls-6" points="1100.36 225.78 1038.41 336.9 940.89 336.9 1029.23 192.94 982.58 55.05 1075.51 55.05 1108.78 157.65 1168.05 55.05 1269.01 55.05 1181.06 188.47 1231.54 336.9 1138.61 336.9 1100.36 225.78"/></g></g></svg>