<svg id="Livello_1" data-name="Livello 1" xmlns="http://www.w3.org/2000/svg" xmlns:xlink="http://www.w3.org/1999/xlink" viewBox="0 0 1292.55 391.82"><defs><style>.cls-1,.cls-4,.cls-6{fill:none;}.cls-2{clip-path:url(#clip-path);}.cls-3{fill:#e63948;}.cls-4,.cls-6{stroke:#2d2d2e;}.cls-4{stroke-miterlimit:10;stroke-width:0.77px;}.cls-5{clip-path:url(#clip-path-2);}.cls-6{stroke-linecap:round;stroke-linejoin:round;stroke-width:9.99px;}.cls-10,.cls-7{fill:#fff;}.cls-8{clip-path:url(#clip-path-4);}.cls-10,.cls-9{font-size:402.15px;font-family:JumperPERSONALUSEONLY-Extra-BoldItalic, Jumper PERSONAL USE ONLY;font-weight:700;font-style:italic;}.cls-9{fill:#e63949;}</style><clipPath id="clip-path"><rect class="cls-1" x="-3.68" y="0.35" width="386.35" height="388.8"/></clipPath><clipPath id="clip-path-2"><rect class="cls-1" x="-3.68" y="0.35" width="382.13" height="388.8"/></clipPath><clipPath id="clip-path-4"><rect class="cls-1" x="415.48" y="43.82" width="877.07" height="293.66"/></clipPath></defs><g class="cls-2"><polygon class="cls-3" points="5.62 373.65 5.62 12.85 263.86 12.85 263.86 248.44 140.22 373.65 5.62 373.65"/><polygon class="cls-4" points="263.86 12.85 263.86 248.44 140.22 373.65 5.62 373.65 5.62 12.85 263.86 12.85"/><polygon class="cls-3" points="5.62 373.65 5.62 12.85 263.86 12.85 263.86 248.44 140.22 373.65 5.62 373.65"/><g class="cls-5"><polygon class="cls-6" points="263.86 12.85 263.86 248.44 140.22 373.65 5.62 373.65 5.62 12.85 263.86 12.85"/></g><line class="cls-4" x1="50.26" y1="66.22" x2="122.93" y2="66.22"/><line class="cls-6" x1="50.26" y1="66.22" x2="122.93" y2="66.22"/><line class="cls-4" x1="50.26" y1="119.59" x2="206.69" y2="119.59"/><line class="cls-6" x1="50.26" y1="119.59" x2="206.69" y2="119.59"/><line class="cls-4" x1="50.26" y1="168.96" x2="202.04" y2="168.96"/><line class="cls-6" x1="50.26" y1="168.96" x2="202.04" y2="168.96"/><line class="cls-4" x1="50.26" y1="223.83" x2="112.29" y2="223.83"/><line class="cls-6" x1="50.26" y1="223.83" x2="112.29" y2="223.83"/><g class="cls-5"><path class="cls-7" d="M336.4,17.88,191,163.8a22.58,22.58,0,1,0,31.87,32L368.27,49.87Z"/><path class="cls-6" d="M336.4,17.88,191,163.8a22.58,22.58,0,1,0,31.87,32L368.27,49.87Z"/><polygon class="cls-3" points="189.03 165.78 220.91 197.76 163.06 223.83 189.03 165.78"/><polygon class="cls-4" points="189.03 165.78 220.91 197.76 163.06 223.83 189.03 165.78"/><path class="cls-7" d="M189,165.78l31.88,32-57.85,26.07Zm93.39-93.73,31.88,32"/><path class="cls-6" d="M189,165.78l31.88,32-57.85,26.07Zm93.39-93.73,31.88,32"/><polygon class="cls-3" points="144.27 252.94 144.27 259.1 155.77 252.94 144.27 252.94"/><polygon class="cls-4" points="144.27 252.94 144.27 259.1 155.77 252.94 144.27 252.94"/><polygon class="cls-3" points="140.43 297.59 140.43 331.47 204.1 309.14 252.43 259.87 140.43 297.59"/><polygon class="cls-4" points="140.43 297.59 140.43 331.47 204.1 309.14 252.43 259.87 140.43 297.59"/><path class="cls-3" d="M140.43,331.47v42.34c0-6.15,66-63.13,66-63.13Z"/><path class="cls-4" d="M140.43,331.47v42.34c0-6.15,66-63.13,66-63.13Z"/><polygon class="cls-3" points="140.05 264.1 140.05 297.98 256.65 256.4 256.65 248.7 179.94 248.7 140.05 264.1"/><polygon class="cls-4" points="140.05 264.1 140.05 297.98 256.65 256.4 256.65 248.7 179.94 248.7 140.05 264.1"/><path class="cls-3" d="M184.8,248.44l-44.58,15.37m112.59-4.17h0l-112.58,38m63.92,11.3-63.92,22.52m8.84,33.27h0l-8.82,3"/><path class="cls-4" d="M184.8,248.44l-44.58,15.37m112.59-4.17h0l-112.58,38m63.92,11.3-63.92,22.52m8.84,33.27h0l-8.82,3"/><polygon class="cls-7" points="263.86 248.44 140.22 373.65 140.22 248.44 263.86 248.44"/><polygon class="cls-6" points="263.86 248.44 140.22 373.65 140.22 248.44 263.86 248.44"/></g></g><g class="cls-8"><g class="cls-8"><text class="cls-9" transform="translate(415.48 15.41)">DoX</text><text class="cls-10" transform="translate(415.48 328.69)">DoX</text></g></g></svg>