<svg id="Livello_1" data-name="Livello 1" xmlns="http://www.w3.org/2000/svg" xmlns:xlink="http://www.w3.org/1999/xlink" viewBox="0 0 291.81 293.66"><defs><style>.cls-1,.cls-4,.cls-6{fill:none;}.cls-2{clip-path:url(#clip-path);}.cls-3{fill:#e63948;}.cls-4,.cls-6{stroke:#2d2d2e;}.cls-4{stroke-miterlimit:10;stroke-width:0.58px;}.cls-5{clip-path:url(#clip-path-2);}.cls-6{stroke-linecap:round;stroke-linejoin:round;stroke-width:7.53px;}.cls-7{fill:#fff;}</style><clipPath id="clip-path"><rect class="cls-1" x="-0.27" y="0.26" width="291.29" height="293.14"/></clipPath><clipPath id="clip-path-2"><rect class="cls-1" x="-0.27" y="0.26" width="288.1" height="293.14"/></clipPath></defs><g class="cls-2"><polygon class="cls-3" points="6.74 281.71 6.74 9.69 201.44 9.69 201.44 187.31 108.22 281.71 6.74 281.71"/><polygon class="cls-4" points="201.44 9.69 201.44 187.31 108.22 281.71 6.74 281.71 6.74 9.69 201.44 9.69"/><polygon class="cls-3" points="6.74 281.71 6.74 9.69 201.44 9.69 201.44 187.31 108.22 281.71 6.74 281.71"/><g class="cls-5"><polygon class="cls-6" points="201.44 9.69 201.44 187.31 108.22 281.71 6.74 281.71 6.74 9.69 201.44 9.69"/></g><line class="cls-4" x1="40.4" y1="49.93" x2="95.19" y2="49.93"/><line class="cls-6" x1="40.4" y1="49.93" x2="95.19" y2="49.93"/><line class="cls-4" x1="40.4" y1="90.16" x2="158.34" y2="90.16"/><line class="cls-6" x1="40.4" y1="90.16" x2="158.34" y2="90.16"/><line class="cls-4" x1="40.4" y1="127.38" x2="154.83" y2="127.38"/><line class="cls-6" x1="40.4" y1="127.38" x2="154.83" y2="127.38"/><line class="cls-4" x1="40.4" y1="168.75" x2="87.17" y2="168.75"/><line class="cls-6" x1="40.4" y1="168.75" x2="87.17" y2="168.75"/><g class="cls-5"><path class="cls-7" d="M256.13,13.48l-109.62,110a17,17,0,1,0,24,24.11l109.62-110Z"/><path class="cls-6" d="M256.13,13.48l-109.62,110a17,17,0,1,0,24,24.11l109.62-110Z"/><polygon class="cls-3" points="145.03 124.99 169.06 149.1 125.44 168.75 145.03 124.99"/><polygon class="cls-4" points="145.03 124.99 169.06 149.1 125.44 168.75 145.03 124.99"/><path class="cls-7" d="M145,125l24,24.11-43.62,19.65Zm70.41-70.67,24,24.12"/><path class="cls-6" d="M145,125l24,24.11-43.62,19.65Zm70.41-70.67,24,24.12"/><polygon class="cls-3" points="111.28 190.7 111.28 195.34 119.95 190.7 111.28 190.7"/><polygon class="cls-4" points="111.28 190.7 111.28 195.34 119.95 190.7 111.28 190.7"/><polygon class="cls-3" points="108.38 224.37 108.38 249.91 156.39 233.07 192.83 195.93 108.38 224.37"/><polygon class="cls-4" points="108.38 224.37 108.38 249.91 156.39 233.07 192.83 195.93 108.38 224.37"/><path class="cls-3" d="M108.38,249.91v31.92c0-4.64,49.74-47.59,49.74-47.59Z"/><path class="cls-4" d="M108.38,249.91v31.92c0-4.64,49.74-47.59,49.74-47.59Z"/><polygon class="cls-3" points="108.09 199.12 108.09 224.66 196.01 193.31 196.01 187.51 138.17 187.51 108.09 199.12"/><polygon class="cls-4" points="108.09 199.12 108.09 224.66 196.01 193.31 196.01 187.51 138.17 187.51 108.09 199.12"/><path class="cls-3" d="M141.84,187.31l-33.62,11.58m84.89-3.14h0l-84.88,28.64m48.2,8.52-48.2,17M114.89,275h0l-6.66,2.3"/><path class="cls-4" d="M141.84,187.31l-33.62,11.58m84.89-3.14h0l-84.88,28.64m48.2,8.52-48.2,17M114.89,275h0l-6.66,2.3"/><polygon class="cls-7" points="201.44 187.31 108.22 281.71 108.22 187.31 201.44 187.31"/><polygon class="cls-6" points="201.44 187.31 108.22 281.71 108.22 187.31 201.44 187.31"/></g></g></svg>